<svg width="20" height="19" viewBox="0 0 20 19" fill="none" xmlns="http://www.w3.org/2000/svg">
<path d="M17.3258 2.68295C15.6011 0.958252 13.3153 0.00534059 10.8893 0C10.8824 0 10.8756 0 10.8687 0C8.45049 0 6.16854 0.94223 4.4414 2.65457C4.32208 2.77283 4.20672 2.89429 4.09472 3.01804L8.12655 7.04987C8.35558 7.2789 8.35558 7.6503 8.12655 7.87933C8.01196 7.99377 7.86196 8.05115 7.71182 8.05115C7.56182 8.05115 7.41168 7.99377 7.29724 7.87933L3.36016 3.94241C3.03301 4.41406 2.75134 4.91592 2.51757 5.44464C2.41961 5.6662 2.46798 5.92514 2.63918 6.0965L5.62991 9.08707L5.14498 11.1913H9.71987C9.9782 10.2419 10.8475 9.54147 11.8776 9.54147C13.1107 9.54147 14.1138 10.5446 14.1138 11.7778C14.1138 13.0109 13.1107 14.014 11.8776 14.014C10.8475 14.014 9.9782 13.3136 9.71987 12.3642H8.57668V13.5692C8.57668 14.9385 7.988 16.1728 7.05081 17.0326C7.88317 17.7003 8.89727 18.121 9.97668 18.2265C10.2774 18.2558 10.5773 18.2703 10.8759 18.2703C13.2889 18.2703 15.6003 17.3209 17.3256 15.5956C19.0502 13.871 20 11.5781 20 9.13925C20 6.70044 19.0503 4.4075 17.3258 2.68295Z" fill="#C6C6CB"/>
<path d="M7.40372 13.5694V12.3643H0.586395C0.262604 12.3643 0 12.6269 0 12.9508V13.6991H3.99551C4.31137 13.6991 4.58298 13.9417 4.59793 14.2573C4.6138 14.594 4.3454 14.872 4.01215 14.872H0V16.5107C0 16.8345 0.262604 17.0971 0.586395 17.0971H3.87604C5.82443 17.0971 7.40372 15.5176 7.40372 13.5694Z" fill="#C6C6CB"/>
<path d="M10.9912 11.1913H11.8776C12.2015 11.1913 12.4641 11.4539 12.4641 11.7779C12.4641 12.1017 12.2015 12.3643 11.8776 12.3643H10.9912C11.1818 12.6514 11.5079 12.8411 11.8776 12.8411C12.464 12.8411 12.941 12.3641 12.941 11.7779C12.941 11.1915 12.464 10.7145 11.8776 10.7145C11.5079 10.7145 11.1818 10.9043 10.9912 11.1913Z" fill="#C6C6CB"/>
</svg>
