<svg width="18" height="18" viewBox="0 0 18 18" fill="none" xmlns="http://www.w3.org/2000/svg">
<path d="M13.5995 14.8572L13.1129 15.2656C13.0493 15.3182 12.9675 15.3435 12.8853 15.336C12.8032 15.3285 12.7273 15.2888 12.6743 15.2256C12.6212 15.1624 12.5954 15.0808 12.6023 14.9985C12.6092 14.9163 12.6484 14.8402 12.7112 14.7867L13.1988 14.3776C12.9087 14.0074 12.6488 13.6145 12.4217 13.2026L11.8561 13.4867C11.7822 13.5233 11.6967 13.5291 11.6185 13.5029C11.5402 13.4766 11.4755 13.4205 11.4385 13.3468C11.4014 13.273 11.3951 13.1876 11.4208 13.1092C11.4465 13.0308 11.5022 12.9657 11.5757 12.9282L12.1417 12.6439C11.945 12.2166 11.7834 11.7739 11.6585 11.3204L11.0435 11.4661C10.963 11.4847 10.8785 11.4706 10.8083 11.4271C10.7382 11.3835 10.6882 11.314 10.6691 11.2336C10.6501 11.1533 10.6636 11.0687 10.7068 10.9983C10.7499 10.9279 10.8192 10.8774 10.8994 10.8579L11.5131 10.7125C11.4217 10.2509 11.3677 9.78273 11.3517 9.3125H10.7188C10.6359 9.3125 10.5564 9.27957 10.4978 9.22097C10.4392 9.16236 10.4062 9.08288 10.4062 9C10.4062 8.91712 10.4392 8.83763 10.4978 8.77902C10.5564 8.72042 10.6359 8.6875 10.7188 8.6875H11.3517C11.3677 8.21726 11.4217 7.74909 11.5131 7.28754L10.8994 7.14209C10.8194 7.1224 10.7504 7.0719 10.7074 7.00157C10.6644 6.93124 10.651 6.84678 10.6699 6.76658C10.6889 6.68638 10.7388 6.61692 10.8088 6.57334C10.8788 6.52976 10.9631 6.51557 11.0435 6.53387L11.6585 6.67963C11.7834 6.22607 11.945 5.78342 12.1417 5.35604L11.5757 5.07177C11.5023 5.0342 11.4467 4.96914 11.4211 4.89077C11.3955 4.8124 11.4018 4.72708 11.4388 4.6534C11.4758 4.57972 11.5405 4.52364 11.6186 4.4974C11.6968 4.47116 11.7822 4.47687 11.8561 4.5133L12.4217 4.79734C12.6488 4.38551 12.9087 3.99259 13.1988 3.6224L12.7112 3.21325C12.649 3.15962 12.6104 3.08364 12.6037 3.00174C12.5971 2.91984 12.623 2.83862 12.6758 2.77566C12.7286 2.7127 12.8041 2.67308 12.8859 2.66536C12.9677 2.65765 13.0492 2.68246 13.1129 2.73443L13.5995 3.14281C13.8721 2.84197 14.1652 2.56028 14.4766 2.29977C12.9146 1.07305 10.9861 0.40625 9 0.40625C7.01393 0.40625 5.08537 1.07305 3.52344 2.29977C3.83482 2.56028 4.12787 2.84197 4.40049 3.14281L4.88715 2.73443C4.95079 2.68245 5.03235 2.65763 5.11416 2.66534C5.19597 2.67305 5.27145 2.71268 5.32426 2.77564C5.37706 2.8386 5.40294 2.91983 5.3963 3.00173C5.38965 3.08364 5.35102 3.15963 5.28875 3.21325L4.80118 3.6224C5.09128 3.99259 5.35116 4.38551 5.57831 4.79734L6.14385 4.5133C6.21781 4.47699 6.30311 4.47136 6.3812 4.49763C6.45929 4.52389 6.52384 4.57994 6.56082 4.65356C6.59779 4.72719 6.60419 4.81244 6.57863 4.89076C6.55306 4.96908 6.4976 5.03414 6.42431 5.07177L5.8583 5.35604C6.05498 5.78342 6.21659 6.22607 6.34153 6.67963L6.95653 6.53387C7.0369 6.51556 7.12125 6.52974 7.19121 6.57332C7.26117 6.6169 7.31109 6.68636 7.33008 6.76657C7.34908 6.84678 7.33562 6.93124 7.29263 7.00157C7.24965 7.07191 7.18062 7.12241 7.10057 7.14209L6.48688 7.28754C6.57829 7.74909 6.63227 8.21726 6.64832 8.6875H7.28125C7.36413 8.6875 7.44362 8.72042 7.50222 8.77902C7.56083 8.83763 7.59375 8.91712 7.59375 9C7.59375 9.08288 7.56083 9.16236 7.50222 9.22097C7.44362 9.27957 7.36413 9.3125 7.28125 9.3125H6.64832C6.63228 9.78273 6.57829 10.2509 6.4869 10.7125L7.10059 10.8579C7.18063 10.8776 7.24966 10.9281 7.29265 10.9984C7.33563 11.0687 7.34909 11.1532 7.3301 11.2334C7.3111 11.3136 7.26119 11.3831 7.19122 11.4267C7.12126 11.4703 7.03691 11.4844 6.95654 11.4661L6.34154 11.3204C6.2166 11.7739 6.05499 12.2166 5.85832 12.6439L6.42432 12.9282C6.49771 12.9658 6.55328 13.0309 6.57891 13.1092C6.60454 13.1876 6.59816 13.2729 6.56116 13.3466C6.52416 13.4203 6.45953 13.4763 6.38137 13.5026C6.3032 13.5288 6.21783 13.5231 6.14387 13.4867L5.57832 13.2026C5.35117 13.6145 5.09129 14.0074 4.80119 14.3776L5.28875 14.7867C5.35101 14.8404 5.38964 14.9164 5.39628 14.9983C5.40292 15.0802 5.37703 15.1614 5.32423 15.2243C5.27142 15.2873 5.19595 15.3269 5.11414 15.3346C5.03234 15.3423 4.95078 15.3175 4.88714 15.2656L4.40049 14.8572C4.12787 15.158 3.83482 15.4397 3.52344 15.7002C5.08537 16.9269 7.01393 17.5937 9 17.5937C10.9861 17.5937 12.9146 16.9269 14.4766 15.7002C14.1652 15.4397 13.8721 15.158 13.5995 14.8572Z" fill="#C6C6CB"/>
<path d="M14.078 3.54436L14.5492 3.93972C14.6115 3.99333 14.6501 4.06933 14.6568 4.15125C14.6634 4.23316 14.6375 4.3144 14.5847 4.37737C14.5319 4.44034 14.4564 4.47996 14.3746 4.48767C14.2928 4.49537 14.2112 4.47054 14.1476 4.41854L13.6775 4.02412C13.4184 4.35692 13.1855 4.70933 12.9809 5.07818L13.5317 5.35482C13.6051 5.3924 13.6607 5.45746 13.6863 5.53582C13.7119 5.61419 13.7056 5.69951 13.6686 5.77319C13.6316 5.84688 13.5669 5.90295 13.4888 5.92919C13.4106 5.95543 13.3252 5.94972 13.2513 5.91329L12.7005 5.63669C12.5252 6.02046 12.3803 6.41741 12.2671 6.82387L12.868 6.9663C12.948 6.98597 13.017 7.03648 13.06 7.10681C13.103 7.17714 13.1165 7.26161 13.0975 7.34182C13.0785 7.42203 13.0286 7.49148 12.9586 7.53507C12.8886 7.57865 12.8043 7.59283 12.7239 7.57451L12.1221 7.43186C12.041 7.84598 11.9924 8.2658 11.9767 8.68748H12.5938C12.6766 8.68748 12.7561 8.72041 12.8147 8.77901C12.8733 8.83762 12.9063 8.9171 12.9063 8.99998C12.9063 9.08286 12.8733 9.16235 12.8147 9.22096C12.7561 9.27956 12.6766 9.31248 12.5938 9.31248H11.9767C11.9924 9.73417 12.041 10.154 12.1221 10.5681L12.7239 10.4255C12.8043 10.4071 12.8886 10.4213 12.9586 10.4649C13.0286 10.5085 13.0785 10.5779 13.0975 10.6582C13.1165 10.7384 13.103 10.8228 13.06 10.8932C13.017 10.9635 12.948 11.014 12.868 11.0337L12.2671 11.1761C12.3803 11.5826 12.5252 11.9795 12.7005 12.3633L13.2513 12.0867C13.3252 12.0503 13.4106 12.0445 13.4888 12.0708C13.5669 12.097 13.6316 12.1531 13.6686 12.2268C13.7056 12.3005 13.7119 12.3858 13.6863 12.4641C13.6607 12.5425 13.6051 12.6076 13.5317 12.6452L12.9809 12.9218C13.1855 13.2906 13.4184 13.6431 13.6775 13.9759L14.1476 13.5814C14.2112 13.5294 14.2928 13.5046 14.3746 13.5123C14.4564 13.52 14.5319 13.5596 14.5847 13.6226C14.6375 13.6856 14.6634 13.7668 14.6568 13.8487C14.6501 13.9306 14.6115 14.0066 14.5492 14.0603L14.078 14.4556C14.3505 14.7554 14.6448 15.0346 14.9585 15.2909C15.8375 14.4955 16.54 13.5247 17.0208 12.4412C17.5016 11.3577 17.75 10.1854 17.75 8.99998C17.75 7.81456 17.5016 6.6423 17.0208 5.55877C16.54 4.47524 15.8375 3.50449 14.9585 2.70911C14.6448 2.96539 14.3505 3.24457 14.078 3.54436Z" fill="#C6C6CB"/>
<path d="M0.25 8.99998C0.250922 10.1853 0.499751 11.3572 0.980502 12.4406C1.46125 13.524 2.1633 14.4949 3.04154 15.2909C3.35525 15.0346 3.64954 14.7554 3.92197 14.4556L3.45084 14.0602C3.38855 14.0066 3.3499 13.9306 3.34325 13.8487C3.33659 13.7668 3.36247 13.6856 3.41529 13.6226C3.4681 13.5596 3.5436 13.52 3.62542 13.5123C3.70724 13.5046 3.78881 13.5294 3.85245 13.5814L4.32247 13.9758C4.58161 13.643 4.81453 13.2906 5.01913 12.9218L4.46829 12.6451C4.395 12.6075 4.33954 12.5425 4.31398 12.4641C4.28841 12.3858 4.29481 12.3006 4.33179 12.2269C4.36876 12.1533 4.43331 12.0973 4.5114 12.071C4.58949 12.0447 4.67479 12.0504 4.74875 12.0867L5.2995 12.3633C5.47481 11.9795 5.61973 11.5826 5.7329 11.1761L5.13205 11.0337C5.05201 11.014 4.98298 10.9635 4.93999 10.8932C4.897 10.8228 4.88354 10.7384 4.90254 10.6581C4.92154 10.5779 4.97145 10.5085 5.04141 10.4649C5.11138 10.4213 5.19573 10.4071 5.27609 10.4254L5.87794 10.5681C5.95897 10.154 6.00759 9.73416 6.02333 9.31248H5.40625C5.32337 9.31248 5.24388 9.27955 5.18528 9.22095C5.12667 9.16234 5.09375 9.08286 5.09375 8.99998C5.09375 8.9171 5.12667 8.83761 5.18528 8.77901C5.24388 8.7204 5.32337 8.68748 5.40625 8.68748H6.02333C6.00759 8.26579 5.95897 7.84598 5.87794 7.43185L5.27609 7.57451C5.19568 7.59294 5.11125 7.57883 5.0412 7.53525C4.97115 7.49168 4.92117 7.42218 4.90216 7.3419C4.88315 7.26163 4.89664 7.17709 4.93971 7.10673C4.98278 7.03636 5.05191 6.98588 5.13205 6.96629L5.7329 6.82387C5.61973 6.41741 5.47481 6.02046 5.2995 5.63668L4.74875 5.91328C4.67478 5.94971 4.58941 5.95543 4.51125 5.92918C4.43308 5.90294 4.36846 5.84687 4.33146 5.77319C4.29445 5.6995 4.28807 5.61418 4.3137 5.53582C4.33934 5.45745 4.3949 5.39239 4.46829 5.35481L5.01913 5.07817C4.81453 4.70932 4.58161 4.35691 4.32247 4.02411L3.85245 4.41853C3.78887 4.47113 3.70708 4.49645 3.62491 4.48896C3.54274 4.48148 3.46686 4.4418 3.41384 4.37858C3.36081 4.31536 3.33494 4.23374 3.34188 4.15152C3.34881 4.0693 3.38798 3.99316 3.45084 3.93971L3.92197 3.54435C3.64954 3.24456 3.35525 2.96538 3.04154 2.70911C2.1633 3.50507 1.46125 4.47594 0.980503 5.55933C0.499752 6.64273 0.250923 7.81471 0.25 8.99998Z" fill="#C6C6CB"/>
</svg>
