<svg width="20" height="20" viewBox="0 0 20 20" fill="none" xmlns="http://www.w3.org/2000/svg">
<path d="M10.8142 1.61554C11.0404 1.31573 11.004 0.679815 10.9718 0.118853C10.9706 0.0946733 10.9692 0.0710254 10.9679 0.0470093C10.6508 0.0167335 10.3299 0 10.005 0C8.76021 0 7.56915 0.229319 6.46985 0.645039C7.25403 1.02189 8.46789 1.67053 9.81713 2.62892C10.2775 2.23276 10.6247 1.86704 10.8142 1.61554Z" fill="#C6C6CB"/>
<path d="M15.881 7.32163C15.3881 7.37731 14.9724 7.4582 14.6169 7.57165C16.3164 10.5388 16.9789 14.2874 17.1411 17.0031C18.8247 15.2876 19.8939 12.9686 19.995 10.3999C18.8349 8.97403 17.2981 7.16088 15.881 7.32163Z" fill="#C6C6CB"/>
<path d="M5.77823 4.76052C6.97229 4.51206 8.09409 3.91108 8.98853 3.27672C7.12256 1.99155 5.56622 1.32459 5.25663 1.19763C3.32074 2.24415 1.7716 3.91157 0.870361 5.93191C2.04179 5.46517 3.31047 5.22771 4.55656 4.99635C4.95968 4.92148 5.37638 4.84411 5.77823 4.76052Z" fill="#C6C6CB"/>
<path d="M12.6901 5.05129C12.7966 5.1584 12.9029 5.26735 13.0085 5.37835C13.398 5.78727 13.7515 6.23454 14.0756 6.70774C14.5476 6.52952 15.1033 6.40314 15.7685 6.32794C17.3357 6.15067 18.7293 7.39218 19.9254 8.75901C19.669 6.68696 18.7803 4.81162 17.4561 3.33264C16.7334 3.41975 15.9276 3.56732 15.1063 3.81239C14.5675 3.9733 13.7095 4.4105 12.6901 5.05129Z" fill="#C6C6CB"/>
<path d="M11.3743 10.2156C11.7845 8.82637 12.2596 7.82494 13.18 7.17491C12.9038 6.77833 12.6065 6.40615 12.2845 6.06804C12.1355 5.91159 11.9849 5.76049 11.8336 5.61206C8.14064 8.12573 3.082 12.7432 2.62201 16.744C4.15748 18.424 6.25887 19.5761 8.62448 19.9029C9.48582 18.1881 10.2965 14.7019 10.7784 12.6285C11.0099 11.6327 11.2097 10.7728 11.3743 10.2156Z" fill="#C6C6CB"/>
<path d="M7.18712 8.01259C8.47475 6.82606 9.83454 5.76207 11.0783 4.90694C10.6637 4.54016 10.2478 4.20205 9.83961 3.89197C8.80659 4.6685 7.45408 5.43333 5.98186 5.73953C5.56958 5.82532 5.14739 5.90376 4.73924 5.97953C3.16662 6.27157 1.657 6.5544 0.387462 7.26273C0.140223 8.133 0.00500488 9.05052 0.00500488 10C0.00500488 12.1241 0.669354 14.0922 1.7986 15.7117C2.53017 12.8152 5.03946 9.9916 7.18712 8.01259Z" fill="#C6C6CB"/>
<path d="M11.9396 4.33573C13.1293 3.57728 14.155 3.05286 14.8204 2.85422C15.418 2.67576 16.0042 2.54578 16.5593 2.45098C15.2766 1.3363 13.7086 0.541847 11.9776 0.195557C12.016 0.893946 12.0327 1.6607 11.6126 2.21778C11.413 2.48232 11.0753 2.84514 10.6359 3.23877C11.0662 3.57372 11.5035 3.939 11.9396 4.33573Z" fill="#C6C6CB"/>
<path d="M12.3333 10.4987C12.1771 11.0276 11.9802 11.8744 11.7523 12.8548C11.0796 15.7496 10.4358 18.3399 9.68396 19.9918C9.7907 19.9952 9.8974 20 10.005 20C12.3355 20 14.4779 19.2006 16.1782 17.864C16.111 15.0222 15.4297 11.0025 13.7136 8.01855C13.0481 8.51324 12.6898 9.29145 12.3333 10.4987Z" fill="#C6C6CB"/>
</svg>
