<svg width="13" height="18" viewBox="0 0 13 18" fill="none" xmlns="http://www.w3.org/2000/svg">
<path d="M13 6.37546L13 1.56345C13 1.25067 12.7079 0.99707 12.3474 0.99707L9.03955 0.99707C8.67912 0.99707 8.38697 1.25067 8.38697 1.56345C8.38697 2.31365 7.68375 2.92399 6.81933 2.92399C5.95492 2.92399 5.25178 2.31365 5.25178 1.56345C5.25178 1.25067 4.95963 0.99707 4.59921 0.99707L1.29128 0.99707C0.93086 0.99707 0.638712 1.25067 0.638712 1.56345L0.638712 6.37546L13 6.37546Z" fill="white"/>
<path d="M8.52182 17.507C8.52182 17.7793 8.80542 18 9.15531 18L12.3665 18C12.7164 18 13 17.7793 13 17.507L13 8L1 8L1 17.507C1 17.7793 1.28361 18 1.6335 18L4.84473 18C5.19461 18 5.47822 17.7793 5.47822 17.507C5.47822 16.854 6.16085 16.3228 7 16.3228C7.83914 16.3228 8.52182 16.854 8.52182 17.507Z" fill="white"/>
</svg>
