<svg width="20" height="20" viewBox="0 0 20 20" fill="none" xmlns="http://www.w3.org/2000/svg">
<path d="M3.58269 0.643758C3.56646 0.45626 3.47539 0.283257 3.3298 0.163826C3.1839 0.0428186 2.99577 -0.0148489 2.80717 0.00327068L0.680409 0.203058C0.492281 0.219918 0.318648 0.310988 0.197956 0.45626C0.0771064 0.601373 0.0192814 0.788714 0.0369283 0.976685L0.137295 2.04022L3.68337 1.70808L3.58269 0.643758Z" fill="#C6C6CB"/>
<path d="M5.28012 19.8817C5.34803 19.8078 5.38128 19.7082 5.37119 19.6084L5.01511 15.8272C3.4083 13.8247 3.14816 11.0575 4.35398 8.79066L3.75225 2.41699L0.206177 2.74929L1.80243 19.6777C1.81992 19.8611 1.97433 20.0008 2.15836 20H5.01841C5.11847 19.9997 5.21363 19.9567 5.28012 19.8817Z" fill="#C6C6CB"/>
<path d="M8.20231 5.65801C9.36422 5.31721 10.5989 5.31327 11.7629 5.64698L11.7881 2.5509H8.22758L8.20231 5.65801Z" fill="#C6C6CB"/>
<path d="M9.19755 15.1084C7.03092 12.9574 6.25131 9.77446 7.17856 6.86572C6.9044 7.02092 6.64379 7.19881 6.3991 7.39733C6.34711 7.58578 6.29811 7.77517 6.25998 7.96345C6.2261 8.12921 6.08051 8.24817 5.91129 8.24832C5.8875 8.24832 5.86355 8.24596 5.84007 8.24123C5.76949 8.22579 5.70536 8.18845 5.65715 8.13441C4.22696 9.82362 3.90538 12.1886 4.83278 14.1982C5.76019 16.2078 7.76831 17.4978 9.98157 17.5057C9.97086 17.4335 9.98331 17.3599 10.0172 17.2953C10.0627 17.2126 10.1393 17.1513 10.23 17.125C10.3208 17.0989 10.4183 17.1097 10.5011 17.1554C10.6684 17.2479 10.8433 17.3335 11.0185 17.4132C11.4482 17.3368 11.8676 17.2106 12.2683 17.0371C11.1127 16.6333 10.063 15.9739 9.19755 15.1084ZM5.49438 11.1534C5.4156 10.6637 5.3759 10.1684 5.3759 9.6722C5.3759 9.60918 5.3759 9.54663 5.3759 9.48423C5.3863 9.29059 5.54496 9.13807 5.73908 9.13524C5.83346 9.13713 5.92342 9.17652 5.98881 9.24474C6.05436 9.31297 6.08997 9.40435 6.08792 9.49889V9.6722C6.08823 10.1304 6.12479 10.5876 6.19758 11.04C6.22878 11.234 6.0969 11.4167 5.90278 11.4479C5.88388 11.4511 5.86465 11.4526 5.84543 11.4526C5.67101 11.4523 5.52227 11.3258 5.49438 11.1534ZM7.09663 14.4243C7.04258 14.4556 6.98113 14.472 6.91874 14.4717C6.79127 14.472 6.67326 14.4041 6.6096 14.2936C6.33088 13.8093 6.09674 13.3007 5.90987 12.774C5.84701 12.5895 5.94422 12.3886 6.12794 12.3233C6.31181 12.2583 6.51381 12.3531 6.58109 12.536C6.75362 13.022 6.96995 13.491 7.2274 13.9375C7.27467 14.0195 7.28728 14.1169 7.2627 14.2082C7.23796 14.2995 7.17809 14.3773 7.096 14.4243H7.09663ZM9.26656 16.7858C9.14161 16.9375 8.91741 16.9594 8.76552 16.8345C8.53201 16.6426 8.30276 16.4357 8.08721 16.2192C7.90933 16.043 7.73727 15.8551 7.57309 15.6617C7.44578 15.5117 7.46406 15.2869 7.61406 15.1596C7.76406 15.0323 7.98874 15.0506 8.11605 15.2006C8.26778 15.3786 8.42739 15.5527 8.59047 15.7155C8.79088 15.9159 9.00202 16.1072 9.21772 16.2852C9.36913 16.4102 9.39056 16.6342 9.26593 16.7858H9.26656Z" fill="#C6C6CB"/>
<path d="M14.0169 15.2325C14.1724 15.2649 14.3345 15.2853 14.4957 15.3065C15.5975 13.8942 15.9703 12.0455 15.5019 10.3166C15.0334 8.58749 13.7785 7.17984 12.1143 6.51666H12.1123C12.039 6.5143 11.9682 6.48877 11.9104 6.44371C11.2988 6.22517 10.6542 6.11268 10.0047 6.11157C9.86795 6.11157 9.73261 6.12181 9.59773 6.13142C9.52652 6.27638 9.4553 6.42134 9.39401 6.56945C9.34658 6.68746 9.23975 6.77128 9.11386 6.78924C8.98781 6.80705 8.86192 6.75647 8.7833 6.65642C8.70483 6.55621 8.68577 6.42181 8.73319 6.3038C8.73997 6.28678 8.74816 6.27039 8.75525 6.25322C8.52899 6.30427 8.30589 6.36919 8.08767 6.44765C7.2496 8.4523 7.32727 10.7224 8.30006 12.6652C9.27284 14.6079 11.0441 16.0301 13.1512 16.5599C13.4254 16.3756 13.683 16.1678 13.9214 15.939C13.9047 15.9354 13.8858 15.9344 13.8702 15.9308C13.7427 15.9076 13.6379 15.8174 13.5963 15.6946C13.5549 15.572 13.5831 15.4365 13.6704 15.3407C13.7575 15.2449 13.8899 15.2041 14.0158 15.2339L14.0169 15.2325ZM8.22427 9.00251V8.96012C8.22411 8.51312 8.26539 8.06722 8.34748 7.6281C8.38388 7.43477 8.56996 7.30746 8.76329 7.3437C8.95662 7.37994 9.08393 7.56618 9.04753 7.75935C8.97347 8.1553 8.93629 8.55724 8.93645 8.96012C8.94039 9.15991 8.78503 9.32693 8.5854 9.33748H8.58036C8.4885 9.34111 8.39901 9.3077 8.33204 9.24468C8.26508 9.18165 8.22632 9.09437 8.22427 9.00251ZM9.22888 11.8799C9.04721 11.9549 8.83908 11.8687 8.76376 11.6872C8.58745 11.2623 8.45336 10.8209 8.36324 10.3697C8.32511 10.1771 8.45006 9.9901 8.6426 9.95166C8.83498 9.91305 9.02232 10.0375 9.06139 10.2298C9.14254 10.6358 9.26307 11.033 9.42142 11.4156C9.49611 11.5969 9.40992 11.8046 9.22888 11.8799ZM10.788 13.9728C10.6482 14.111 10.4229 14.1097 10.2845 13.9699C9.96091 13.6432 9.66927 13.2861 9.41354 12.9039C9.33508 12.7985 9.32106 12.6582 9.37715 12.5393C9.43324 12.4205 9.55031 12.342 9.68156 12.3356C9.81296 12.3291 9.93712 12.3954 10.0047 12.5082C10.2346 12.853 10.4969 13.1749 10.788 13.4697C10.9268 13.6087 10.9268 13.8338 10.788 13.9728ZM13.0181 15.3258C12.981 15.4127 12.9109 15.4813 12.8232 15.5166C12.7356 15.5517 12.6374 15.5506 12.5506 15.5134C12.1271 15.3325 11.7221 15.1107 11.3418 14.8512C11.196 14.7347 11.165 14.5255 11.2704 14.3717C11.376 14.2179 11.5822 14.1716 11.7434 14.2655C12.0853 14.4992 12.4494 14.6987 12.8304 14.8611C13.0107 14.9383 13.0945 15.1468 13.0181 15.3272V15.3258Z" fill="#C6C6CB"/>
<path d="M15.6566 8.78926C16.8635 11.0569 16.6032 13.8256 14.995 15.8286L14.6372 19.6084C14.6276 19.7084 14.6608 19.808 14.7287 19.8822C14.7965 19.9566 14.8926 19.9986 14.9931 19.9982H17.8532C18.0374 19.9991 18.1919 19.859 18.2093 19.6756L19.8039 2.74962L16.2583 2.41748L15.6566 8.78926Z" fill="#C6C6CB"/>
<path d="M19.3291 0.203098L17.2023 0.00362504C17.0142 -0.0151248 16.8264 0.0419124 16.6805 0.162289C16.5347 0.282666 16.4432 0.456299 16.426 0.644585L16.3253 1.70986L19.8709 2.04215L19.9718 0.977827C20.0071 0.587705 19.7206 0.24233 19.3308 0.204831L19.3291 0.203098Z" fill="#C6C6CB"/>
<path d="M10.964 18.1392C10.0492 18.2863 9.11311 18.2266 8.2243 17.9646V19.6422C8.2243 19.8388 8.38376 19.9981 8.58039 19.9981H11.4289C11.6256 19.9981 11.785 19.8388 11.785 19.6422V17.9646C11.5498 18.0312 11.3109 18.0843 11.0697 18.1234C11.0361 18.134 11.0012 18.1393 10.966 18.1395L10.964 18.1392Z" fill="#C6C6CB"/>
<path d="M11.8022 0.785037C11.8038 0.596121 11.7302 0.414295 11.5977 0.27958C11.4652 0.145023 11.2846 0.068448 11.0957 0.0668724L8.95933 0.0501709H8.95318C8.56227 0.0501709 8.24447 0.365294 8.24116 0.756203L8.23297 1.83865H11.7935L11.8022 0.785037Z" fill="#C6C6CB"/>
</svg>
