<svg width="20" height="20" viewBox="0 0 20 20" fill="none" xmlns="http://www.w3.org/2000/svg">
<path d="M3.42164 8.2124L0.690308 10.6311C0.792746 12.1693 1.27726 13.6577 2.09997 14.9614L5.72897 15.3134L7.21597 13.2667L6.07797 9.0744L3.42164 8.2124Z" fill="#C6C6CB"/>
<path d="M17.4 15.6797L14.3413 15.9764L13.1127 18.798C14.8121 18.1929 16.3008 17.1101 17.4 15.6797Z" fill="#C6C6CB"/>
<path d="M12.166 12.9991L13.2633 8.95708L9.99997 6.73608L6.73663 8.95708L7.83363 12.9991H12.166Z" fill="#C6C6CB"/>
<path d="M13.7333 15.7051L12.2496 13.6667H7.74964L6.26764 15.7061L7.72531 19.0531C9.21788 19.4282 10.7801 19.4282 12.2726 19.0531L13.7333 15.7051Z" fill="#C6C6CB"/>
<path d="M6.88831 18.798L5.65931 15.9764L2.59998 15.6797C3.69941 17.1103 5.18847 18.1931 6.88831 18.798Z" fill="#C6C6CB"/>
<path d="M2.31264 4.71533C1.28736 6.20027 0.717528 7.95205 0.672974 9.756L2.97531 7.717L2.31264 4.71533Z" fill="#C6C6CB"/>
<path d="M6.30228 8.4464L9.66661 6.15673V3.19006L6.52295 1.34106C5.09447 1.91775 3.83009 2.83753 2.84161 4.01906L3.62761 7.5784L6.30228 8.4464Z" fill="#C6C6CB"/>
<path d="M19.327 9.75609C19.2824 7.95204 18.7125 6.20017 17.6873 4.71509L17.0243 7.71709L19.327 9.75609Z" fill="#C6C6CB"/>
<path d="M12.652 1.05274C10.9214 0.538083 9.07851 0.538083 7.34796 1.05274L9.99996 2.61341L12.652 1.05274Z" fill="#C6C6CB"/>
<path d="M10.3333 6.15673L13.698 8.4464L16.3723 7.57973L17.158 4.02006C16.1697 2.83809 14.9053 1.91795 13.4766 1.34106L10.3333 3.19073V6.15673Z" fill="#C6C6CB"/>
<path d="M19.3097 10.6311L16.5783 8.2124L13.922 9.0744L12.784 13.2667L14.2707 15.3127L17.9 14.9614C18.7227 13.6576 19.2072 12.1693 19.3097 10.6311Z" fill="#C6C6CB"/>
</svg>
