<svg width="20" height="20" viewBox="0 0 20 20" fill="none" xmlns="http://www.w3.org/2000/svg">
<path d="M10.5239 2.15589V6.12913L13.8208 8.5244L17.0686 6.6337V2.9276C16.1953 2.05505 15.1578 1.34606 13.9937 0.838867L10.5239 2.15589Z" fill="#C6C6CB"/>
<path d="M9.99952 7.04443L6.82635 9.34982L8.03844 13.0801H11.9607L13.1728 9.34982L9.99952 7.04443Z" fill="#C6C6CB"/>
<path d="M12.6589 19.6356L14.5055 16.6575L12.1157 14.1288H7.88344L5.49396 16.6572L7.34755 19.6381C9.08935 20.1213 10.914 20.1209 12.6589 19.6356Z" fill="#C6C6CB"/>
<path d="M7.55878 0.306803L9.99949 1.23326L12.4414 0.3064C11.6387 0.10238 10.8199 0 10.0008 0C9.18179 0 8.36262 0.102649 7.55878 0.306803Z" fill="#C6C6CB"/>
<path d="M17.4805 7.6073L14.2259 9.50196L12.9365 13.4704L15.304 15.9755L18.8685 14.6099C18.9872 14.3806 19.098 14.1459 19.2 13.9057C19.6549 12.8338 19.9158 11.7126 19.9826 10.5837L17.4805 7.6073Z" fill="#C6C6CB"/>
<path d="M7.06262 13.4704L5.77316 9.50199L2.51919 7.60767L0.0175781 10.5923C0.0819099 11.6607 0.31981 12.7232 0.732488 13.7445C0.848043 14.0304 0.976169 14.3089 1.11532 14.58L4.69659 15.974L7.06262 13.4704Z" fill="#C6C6CB"/>
<path d="M17.9303 16.0891L15.5166 17.0168L14.2617 19.0406C15.7195 18.3556 16.969 17.3456 17.9303 16.0891Z" fill="#C6C6CB"/>
<path d="M18.1172 4.16357V6.73416L19.9364 8.88447C19.8349 7.9933 19.6118 7.11033 19.2667 6.25614C18.9635 5.50574 18.5768 4.80521 18.1172 4.16357Z" fill="#C6C6CB"/>
<path d="M5.73706 19.0403L4.48242 17.0169L2.06732 16.0886C3.02719 17.3433 4.27692 18.3534 5.73706 19.0403Z" fill="#C6C6CB"/>
<path d="M6.17832 8.52443L9.47518 6.12916V2.15591L6.00476 0.838623C4.84201 1.34467 3.80457 2.05387 2.93054 2.92763V6.63373L6.17832 8.52443Z" fill="#C6C6CB"/>
<path d="M0.0628662 8.88437L1.88177 6.73426V4.16321C1.45558 4.75833 1.09204 5.40487 0.799086 6.09504C0.415784 6.99811 0.170691 7.93613 0.0628662 8.88437Z" fill="#C6C6CB"/>
</svg>
