<svg width="19" height="17" viewBox="0 0 19 17" fill="none" xmlns="http://www.w3.org/2000/svg">
<path d="M9.37532 0C8.14545 0 6.9807 0.274461 5.93647 0.762339L7.98611 2.8137H10.7639L12.8154 0.762339C11.7708 0.27413 10.6056 0 9.37532 0ZM13.3958 1.06324L11.2418 3.21714L11.8308 5.41931L13.7493 6.52771L16.7798 4.77783C16.0711 3.21067 14.8809 1.90969 13.3958 1.06324ZM5.35354 1.06439C3.86901 1.91089 2.67872 3.21102 1.97025 4.77779L5.00137 6.52825L6.91979 5.41927L7.50819 3.21894L5.35354 1.06439ZM8.09717 3.43622L7.55091 5.47421L9.37532 6.52767L11.1991 5.47421L10.6534 3.43622H8.09717ZM1.73158 5.36189C1.42042 6.22397 1.25 7.15364 1.25 8.12372C1.25 9.09421 1.42017 10.0248 1.73158 10.8874L4.68763 9.1827V7.06722L1.73158 5.36189ZM17.0191 5.3625L14.063 7.06722V9.1827L17.0178 10.888C17.3294 10.0253 17.5 9.0945 17.5 8.12376C17.5 7.15395 17.3301 6.22438 17.0191 5.3625ZM7.18832 5.9869L5.31266 7.06845V9.18087L7.18832 10.2649C7.81307 9.90297 8.438 9.54141 9.0628 9.17964V7.06722L7.18832 5.9869ZM11.5611 5.9869L9.68783 7.07209V9.17903L11.5617 10.2649L13.4373 9.18332V7.06845L11.5611 5.9869ZM4.99953 9.72286L1.97085 11.4709C2.67969 13.0384 3.87017 14.3394 5.35538 15.1861L7.50819 13.031L6.91979 10.8319L4.99953 9.72286ZM13.7505 9.72286L11.8308 10.8319L11.2418 13.0328L13.3965 15.1855C14.8808 14.3389 16.0705 13.0382 16.7792 11.4715L13.7505 9.72286ZM9.3747 9.72405L7.55091 10.7769L8.09658 12.8112H10.6534L11.1991 10.7769L9.3747 9.72405ZM7.98611 13.4362L5.93524 15.487C6.97975 15.9754 8.14499 16.2499 9.37532 16.2499C10.6047 16.2499 11.769 15.976 12.8129 15.4882L10.7639 13.4362H7.98611Z" fill="#C6C6CB"/>
<path d="M0.974758 11.2133C0.923184 11.2132 0.872408 11.226 0.826955 11.2503C0.781503 11.2747 0.742788 11.31 0.714264 11.3529C0.685739 11.3959 0.668291 11.4453 0.663475 11.4966C0.658659 11.548 0.666626 11.5997 0.686664 11.6472C0.849254 12.0482 1.03979 12.4377 1.25613 12.8124C1.27663 12.848 1.30394 12.8792 1.3365 12.9042C1.36906 12.9292 1.40624 12.9476 1.44591 12.9583C1.48557 12.9689 1.52695 12.9717 1.56767 12.9663C1.6084 12.961 1.64767 12.9476 1.68324 12.9271C1.71881 12.9066 1.74998 12.8792 1.77498 12.8466C1.79998 12.8141 1.8183 12.7769 1.82892 12.7372C1.83953 12.6975 1.84222 12.6561 1.83683 12.6154C1.83144 12.5747 1.81807 12.5354 1.7975 12.4999C1.5956 12.1501 1.41764 11.7871 1.26591 11.4128C1.24315 11.3541 1.20317 11.3036 1.15121 11.268C1.09925 11.2324 1.03775 11.2133 0.974758 11.2133Z" fill="#C6C6CB"/>
<path d="M18.1812 5.62061C17.9725 5.62061 17.8122 5.80953 17.8662 6.01306C18.0381 6.70395 18.125 7.41294 18.125 8.1249C18.125 8.55384 18.0933 8.98229 18.0304 9.4066C17.966 9.82138 18.5903 9.91383 18.6487 9.49815C18.7161 9.04352 18.7501 8.58444 18.7501 8.12486C18.7501 7.36206 18.6571 6.60193 18.473 5.86167C18.4263 5.68752 18.2833 5.62061 18.1812 5.62061Z" fill="#C6C6CB"/>
<path d="M0.101339 6.75161C0.0340157 7.20623 0 7.66531 0 8.1249C0 8.88767 0.0929528 9.64782 0.277087 10.3881C0.377598 10.7925 0.984283 10.6418 0.883783 10.2373C0.711933 9.54643 0.624992 8.83682 0.624992 8.1249C0.624992 7.69596 0.656764 7.26744 0.719598 6.84313C0.749835 6.65697 0.609638 6.48664 0.421134 6.48059C0.20902 6.48059 0.136004 6.62225 0.101339 6.75161Z" fill="#C6C6CB"/>
<path d="M17.5358 3.59372C17.5358 3.6766 17.5029 3.7561 17.4443 3.81471C17.3857 3.87331 17.3062 3.90622 17.2233 3.90622C17.1823 3.90622 17.1417 3.89814 17.1037 3.88243C17.0658 3.86673 17.0314 3.84372 17.0024 3.81471C16.9733 3.78569 16.9503 3.75123 16.9346 3.71331C16.9189 3.6754 16.9108 3.63476 16.9108 3.59372C16.9108 3.55268 16.9189 3.51207 16.9346 3.47416C16.9503 3.43625 16.9733 3.40178 17.0024 3.37277C17.0314 3.34375 17.0658 3.32074 17.1037 3.30504C17.1417 3.28934 17.1823 3.28125 17.2233 3.28125C17.3062 3.28125 17.3857 3.31416 17.4443 3.37277C17.5029 3.43137 17.5358 3.51084 17.5358 3.59372Z" fill="#C6C6CB"/>
<path d="M18.0859 4.71961C18.0859 4.80249 18.053 4.88199 17.9944 4.9406C17.9357 4.9992 17.8563 5.03211 17.7734 5.03211C17.7323 5.03212 17.6917 5.02403 17.6538 5.00832C17.6159 4.99262 17.5814 4.96962 17.5524 4.9406C17.5234 4.91158 17.5004 4.87712 17.4847 4.8392C17.469 4.80129 17.4609 4.76065 17.4609 4.71961C17.4609 4.67857 17.469 4.63797 17.4847 4.60005C17.5004 4.56213 17.5234 4.52768 17.5524 4.49866C17.5814 4.46964 17.6159 4.4466 17.6538 4.43089C17.6917 4.41519 17.7323 4.4071 17.7734 4.4071C17.8144 4.40711 17.8551 4.41519 17.893 4.43089C17.9309 4.4466 17.9653 4.46964 17.9944 4.49866C18.0234 4.52768 18.0464 4.56214 18.0621 4.60005C18.0778 4.63796 18.0859 4.67857 18.0859 4.71961Z" fill="#C6C6CB"/>
</svg>
