<svg width="20" height="20" viewBox="0 0 20 20" fill="none" xmlns="http://www.w3.org/2000/svg">
<path d="M3.75958 4.4835C4.99968 4.4835 6.00971 3.48246 6.00971 2.24005C6.00975 1.00632 4.99968 0 3.75958 0C2.52655 0 1.52289 1.00632 1.52289 2.24005C1.52289 3.48242 2.52655 4.4835 3.75958 4.4835Z" fill="#C6C6CB"/>
<path d="M18.8603 19.2488H17.8671C17.8757 19.2399 17.8858 19.2331 17.8936 19.2238C18.2997 18.7565 18.2504 18.049 17.7835 17.643L13.1352 13.601L12.5865 11.8604V8.39178C12.5865 7.77284 12.2032 6.9473 11.7303 6.54801C11.7303 6.54801 8.25836 3.07231 8.15266 2.97333C7.77653 2.61997 7.18521 2.63938 6.83259 3.01516L3.84435 6.19915C3.67365 6.38106 3.58287 6.62348 3.5922 6.87301L3.75915 11.3718C3.77224 11.7296 3.98665 12.0296 4.28809 12.1749L1.91957 17.0831C1.85718 17.0693 1.79258 17.0595 1.72496 17.0595H1.16469C0.752315 17.0595 0.264469 17.3334 0.0750959 17.6714C-0.114277 18.0091 0.0672444 18.2833 0.479622 18.2833H1.72496C2.13734 18.2833 2.47202 18.0094 2.47202 17.6714C2.47202 17.6676 2.47089 17.6639 2.4705 17.6606L5.02359 12.3695C5.2675 12.3691 5.51144 12.2739 5.69409 12.0849L8.20125 9.49294C8.22106 9.47278 8.23598 9.44923 8.25355 9.42759L9.2303 10.3592L6.05491 13.2402C5.82331 13.4501 5.68999 13.7475 5.68737 14.0601C5.68476 14.3727 5.81288 14.6727 6.04038 14.8867L10.6833 19.2496H10.4092C10.3958 19.2496 10.3823 19.2503 10.3688 19.2518C10.3527 19.2536 10.002 19.2884 9.87162 18.9436C9.79951 18.7506 9.5844 18.6531 9.39053 18.7258C9.19745 18.7983 9.09995 19.0138 9.17276 19.2069C9.41147 19.8401 9.99002 20 10.3408 20C10.3714 20 10.4002 19.9989 10.4267 19.9966H13.2574C13.4639 19.9966 13.6309 19.8297 13.6309 19.6231C13.6309 19.4165 13.4639 19.2496 13.2574 19.2496H12.7105C12.9574 18.8107 12.8876 18.2451 12.5039 17.885L8.45933 14.084L10.3864 12.3355L11.0927 14.5763C11.1547 14.7731 11.2706 14.9491 11.4263 15.0847L16.2149 19.2488H16.0122C15.9987 19.2488 15.9853 19.2496 15.9718 19.2511C15.9561 19.253 15.605 19.2877 15.4746 18.9429C15.4022 18.7498 15.1867 18.6523 14.9935 18.7252C14.8004 18.7976 14.7029 19.0131 14.7758 19.2063C15.0145 19.8393 15.593 19.9993 15.9438 19.9993C15.9744 19.9993 16.0032 19.9981 16.0297 19.9959H18.8603C19.0669 19.9959 19.2339 19.8289 19.2339 19.6224C19.2339 19.4158 19.0669 19.2488 18.8603 19.2488ZM6.59619 8.46502L5.55999 9.5363L5.47335 7.19277L6.59654 5.99599V8.46502H6.59619Z" fill="#C6C6CB"/>
<path d="M2.09773 19.0743H0.373516C0.166953 19.0743 0 19.2413 0 19.4479C0 19.6545 0.166953 19.8214 0.373516 19.8214H2.09773C2.3043 19.8214 2.47125 19.6545 2.47125 19.4479C2.47129 19.2413 2.3043 19.0743 2.09773 19.0743Z" fill="#C6C6CB"/>
</svg>
