<svg width="20" height="14" viewBox="0 0 20 14" fill="none" xmlns="http://www.w3.org/2000/svg">
<path d="M14.0583 7.56117C14.1605 7.5377 14.2679 7.56175 14.3503 7.62659C14.4328 7.69142 14.4815 7.79008 14.4828 7.89496V12.0698C14.4761 12.633 14.1322 13.1372 13.6103 13.3491C13.2821 13.4929 13.8459 13.4491 1.37931 13.4491C0.619573 13.4442 0.00489076 12.8295 0 12.0698V6.89738C0 6.1356 0.617538 5.51807 1.37931 5.51807H12.1059C12.2107 5.51937 12.3094 5.56806 12.3742 5.65051C12.4391 5.73296 12.4631 5.84032 12.4397 5.94255C12.3491 6.39361 12.4901 6.86009 12.8154 7.18541C13.1407 7.51073 13.6072 7.65176 14.0583 7.56117V7.56117Z" fill="url(#paint0_linear_54_28)"/>
<path d="M4.82762 12.0696C4.63717 12.0696 4.48279 11.9152 4.48279 11.7248V7.24204C4.48279 7.0516 4.63717 6.89722 4.82762 6.89722C5.01806 6.89722 5.17244 7.0516 5.17244 7.24204V11.7248C5.17244 11.9152 5.01806 12.0696 4.82762 12.0696Z" fill="#1C3934"/>
<path d="M7.58625 12.0697H7.24142C7.08078 12.0698 6.94135 11.959 6.90521 11.8024L5.87073 7.31968C5.82788 7.134 5.94367 6.94873 6.12935 6.90589C6.31503 6.86304 6.50029 6.97882 6.54314 7.16451L7.41383 10.9383L8.28452 7.16451C8.31224 7.04439 8.40194 6.94819 8.51982 6.91214C8.6377 6.87608 8.76586 6.90566 8.85602 6.98972C8.94619 7.07378 8.98466 7.19956 8.95694 7.31968L7.92245 11.8024C7.88631 11.959 7.74688 12.0698 7.58625 12.0697V12.0697Z" fill="#1C3934"/>
<path d="M11.7242 12.0696H10C9.8096 12.0696 9.65521 11.9152 9.65521 11.7248V7.24204C9.65521 7.0516 9.8096 6.89722 10 6.89722C10.1905 6.89722 10.3449 7.0516 10.3449 7.24204V11.38H11.7242C11.9146 11.38 12.069 11.5344 12.069 11.7248C12.069 11.9152 11.9146 12.0696 11.7242 12.0696Z" fill="#1C3934"/>
<path d="M3.4483 12.0696H1.72416C1.53372 12.0696 1.37933 11.9152 1.37933 11.7248V7.24204C1.37933 7.0516 1.53372 6.89722 1.72416 6.89722C1.9146 6.89722 2.06899 7.0516 2.06899 7.24204V11.38H3.4483C3.63874 11.38 3.79313 11.5344 3.79313 11.7248C3.79313 11.9152 3.63874 12.0696 3.4483 12.0696Z" fill="#1C3934"/>
<path d="M11.7242 10.0007H10C9.8096 10.0007 9.65521 9.84631 9.65521 9.65586C9.65521 9.46542 9.8096 9.31104 10 9.31104H11.7242C11.9146 9.31104 12.069 9.46542 12.069 9.65586C12.069 9.84631 11.9146 10.0007 11.7242 10.0007Z" fill="#1C3934"/>
<path d="M11.7242 7.58687H10C9.8096 7.58687 9.65521 7.43249 9.65521 7.24204C9.65521 7.0516 9.8096 6.89722 10 6.89722H11.7242C11.9146 6.89722 12.069 7.0516 12.069 7.24204C12.069 7.43249 11.9146 7.58687 11.7242 7.58687Z" fill="#1C3934"/>
<path d="M10.1162 3.08354C11.281 1.70802 13.1155 1.09644 14.8727 1.49776C16.63 1.89908 18.017 3.24637 18.4692 4.99121C18.9215 6.73605 18.3635 8.58747 17.0224 9.79182C16.8227 9.95103 16.7273 10.2076 16.7745 10.4586C16.8217 10.7096 17.0038 10.914 17.2478 10.9897C17.4917 11.0655 17.7575 11.0002 17.9386 10.8201C19.6638 9.27246 20.3822 6.89214 19.8014 4.64848C19.2206 2.40481 17.4374 0.672103 15.178 0.155963C12.9185 -0.360177 10.5598 0.426357 9.06239 2.19527C8.89186 2.38204 8.83724 2.64716 8.92006 2.88612C9.00288 3.12509 9.20985 3.29955 9.45938 3.34074C9.70891 3.38192 9.96097 3.28322 10.1162 3.08354V3.08354Z" fill="url(#paint1_linear_54_28)"/>
<path d="M12.5842 4.52796C13.4107 3.93539 14.5453 4.0314 15.2606 4.75443C15.9758 5.47746 16.0595 6.61307 15.458 7.43313C15.3011 7.65144 15.2889 7.9421 15.4269 8.17278C15.5423 8.37248 15.7499 8.50127 15.9801 8.51596C16.2103 8.53065 16.4326 8.4293 16.5724 8.24589C17.5764 6.8797 17.4377 4.98622 16.2453 3.78095C15.0529 2.57567 13.1611 2.41662 11.7842 3.40589C11.5941 3.54947 11.4921 3.78142 11.5148 4.01857C11.5375 4.25572 11.6816 4.4641 11.8955 4.56899C12.115 4.68392 12.3799 4.66813 12.5842 4.52796V4.52796Z" fill="url(#paint2_linear_54_28)"/>
<path d="M13.7931 6.89738C14.174 6.89738 14.4828 6.58861 14.4828 6.20772C14.4828 5.82684 14.174 5.51807 13.7931 5.51807C13.4122 5.51807 13.1035 5.82684 13.1035 6.20772C13.1035 6.58861 13.4122 6.89738 13.7931 6.89738Z" fill="url(#paint3_linear_54_28)"/>
<defs>
<linearGradient id="paint0_linear_54_28" x1="7.24138" y1="5.51807" x2="7.24138" y2="13.4554" gradientUnits="userSpaceOnUse">
<stop stop-color="#71C73E"/>
<stop offset="1" stop-color="#6FC73F"/>
</linearGradient>
<linearGradient id="paint1_linear_54_28" x1="14.4408" y1="0" x2="14.4408" y2="11.0208" gradientUnits="userSpaceOnUse">
<stop stop-color="#71C73E"/>
<stop offset="1" stop-color="#6FC73F"/>
</linearGradient>
<linearGradient id="paint2_linear_54_28" x1="14.3767" y1="2.7583" x2="14.3767" y2="8.51736" gradientUnits="userSpaceOnUse">
<stop stop-color="#71C73E"/>
<stop offset="1" stop-color="#6FC73F"/>
</linearGradient>
<linearGradient id="paint3_linear_54_28" x1="13.7931" y1="5.51807" x2="13.7931" y2="6.89738" gradientUnits="userSpaceOnUse">
<stop stop-color="#71C73E"/>
<stop offset="1" stop-color="#6FC73F"/>
</linearGradient>
</defs>
</svg>
