<svg width="20" height="18" viewBox="0 0 20 18" fill="none" xmlns="http://www.w3.org/2000/svg">
<path d="M11.1005 5.28389L11.1016 5.35247L8.234 10.2896C7.76961 10.2644 7.30376 10.3612 6.86135 10.5769C6.66876 10.6697 6.48489 10.786 6.31273 10.9241L0.0153362 7.84815C0.0153362 7.84815 -0.130425 10.6893 0.476791 12.8065L4.92873 14.9836C5.14847 16.1676 5.83699 17.2058 6.84853 17.705C7.64434 18.0969 8.53885 18.0984 9.33561 17.7092C10.1324 17.3201 10.7662 16.572 11.0979 15.6294C11.2749 15.1274 11.3603 14.5866 11.3485 14.0426L15.4477 10.5682L15.5484 10.5704C18.004 10.5704 20 8.19797 20 5.28389C20 2.36981 18.0077 0.00607643 15.5484 0C13.0939 0 11.0968 2.36981 11.0968 5.28389H11.1005ZM10.412 15.2883C9.87949 16.8074 8.41015 17.5223 7.1331 16.8916C6.56639 16.6094 6.10704 16.09 5.84249 15.4324L7.29168 16.1442C7.51555 16.2546 7.75559 16.3117 7.99808 16.3122C8.24057 16.3126 8.48076 16.2565 8.70492 16.1469C8.92909 16.0373 9.13284 15.8764 9.30453 15.6735C9.47621 15.4705 9.61247 15.2295 9.70552 14.9641C9.89395 14.4279 9.89506 13.8249 9.70862 13.2877C9.52219 12.7505 9.16344 12.323 8.7112 12.099L7.20964 11.3634C7.78756 11.1029 8.44458 11.0943 9.05912 11.3968C9.68172 11.7019 10.1578 12.2766 10.4127 13.0114C10.6676 13.7462 10.6662 14.5565 10.4091 15.2883M15.5525 8.80605C14.7656 8.80352 14.0116 8.43151 13.4558 7.7715C12.8999 7.1115 12.5874 6.21729 12.5867 5.28476C12.5876 4.35238 12.9001 3.4584 13.456 2.79857C14.0119 2.13875 14.7657 1.76686 15.5525 1.76434C16.3393 1.76663 17.0933 2.13842 17.6494 2.79827C18.2054 3.45812 18.5181 4.35223 18.5189 5.28476C18.5183 6.21744 18.2057 7.11178 17.6496 7.77181C17.0936 8.43185 16.3394 8.80375 15.5525 8.80605ZM13.3301 5.27912C13.3297 4.57846 13.5639 3.90624 13.9815 3.41019C14.399 2.91414 14.9656 2.63485 15.5568 2.6337C16.7856 2.6337 17.785 3.8186 17.785 5.27912C17.7853 5.97992 17.5508 6.65219 17.1329 7.1481C16.7151 7.64401 16.1482 7.92298 15.5568 7.92367C14.9657 7.92263 14.3991 7.64351 13.9815 7.14764C13.5639 6.65176 13.3295 5.9797 13.3298 5.27912H13.3301Z" fill="url(#paint0_linear_277_22)"/>
<defs>
<linearGradient id="paint0_linear_277_22" x1="-1.28713" y1="20.7" x2="24.1603" y2="16.1815" gradientUnits="userSpaceOnUse">
<stop stop-color="#00A182"/>
<stop stop-color="white"/>
</linearGradient>
</defs>
</svg>
