<svg width="20" height="18" viewBox="0 0 20 18" fill="none" xmlns="http://www.w3.org/2000/svg">
<path d="M5.01211 0.560849C3.95811 0.68345 3.11491 0.97485 2.49771 1.42705C0.903307 2.59605 -0.108493 4.89185 0.290107 6.42505C0.489507 7.19545 1.02211 7.95045 1.77351 8.53705C1.94591 8.67125 2.29091 8.94705 2.53231 9.14645C3.26831 9.74445 3.58251 9.99345 3.59011 9.98205C3.59391 9.97445 3.58251 9.84025 3.56331 9.68305C3.50591 9.23465 3.55191 8.16145 3.64771 7.70925C3.88151 6.60545 4.29171 5.84645 5.08111 5.06085C5.47591 4.66985 5.80931 4.39785 6.31151 4.06045C7.49971 3.27085 9.12091 2.62305 10.3091 2.46985C10.5045 2.44305 10.6579 2.41225 10.6541 2.39705C10.6273 2.33185 10.1597 1.94865 9.86451 1.75705C9.08251 1.24725 7.71431 0.737449 6.76751 0.599449C6.35751 0.541649 5.38391 0.518649 5.01211 0.560849Z" fill="black"/>
<path d="M5.01211 0.560849C3.95811 0.68345 3.11491 0.97485 2.49771 1.42705C0.903307 2.59605 -0.108493 4.89185 0.290107 6.42505C0.489507 7.19545 1.02211 7.95045 1.77351 8.53705C1.94591 8.67125 2.29091 8.94705 2.53231 9.14645C3.26831 9.74445 3.58251 9.99345 3.59011 9.98205C3.59391 9.97445 3.58251 9.84025 3.56331 9.68305C3.50591 9.23465 3.55191 8.16145 3.64771 7.70925C3.88151 6.60545 4.29171 5.84645 5.08111 5.06085C5.47591 4.66985 5.80931 4.39785 6.31151 4.06045C7.49971 3.27085 9.12091 2.62305 10.3091 2.46985C10.5045 2.44305 10.6579 2.41225 10.6541 2.39705C10.6273 2.33185 10.1597 1.94865 9.86451 1.75705C9.08251 1.24725 7.71431 0.737449 6.76751 0.599449C6.35751 0.541649 5.38391 0.518649 5.01211 0.560849Z" fill="url(#paint0_linear_387_4882)"/>
<path d="M10.9646 2.86216C9.16323 3.11136 6.73323 4.21896 5.57563 5.32276C5.24223 5.64476 4.83583 6.13916 4.87803 6.17756C4.88563 6.18516 5.10803 6.27716 5.36863 6.38456C6.15823 6.69496 7.78323 7.19336 8.01323 7.19336C8.05163 7.19336 8.15883 7.13196 8.25083 7.05156C10.0292 5.55296 13.2986 4.40316 15.7938 4.39536H16.1962L16.1004 4.31876C15.9202 4.17316 14.7818 3.63656 14.3182 3.47556C13.6782 3.25716 12.9614 3.07316 12.306 2.96196C11.6124 2.84296 11.2828 2.81996 10.9646 2.86216Z" fill="black"/>
<path d="M10.9646 2.86216C9.16323 3.11136 6.73323 4.21896 5.57563 5.32276C5.24223 5.64476 4.83583 6.13916 4.87803 6.17756C4.88563 6.18516 5.10803 6.27716 5.36863 6.38456C6.15823 6.69496 7.78323 7.19336 8.01323 7.19336C8.05163 7.19336 8.15883 7.13196 8.25083 7.05156C10.0292 5.55296 13.2986 4.40316 15.7938 4.39536H16.1962L16.1004 4.31876C15.9202 4.17316 14.7818 3.63656 14.3182 3.47556C13.6782 3.25716 12.9614 3.07316 12.306 2.96196C11.6124 2.84296 11.2828 2.81996 10.9646 2.86216Z" fill="url(#paint1_linear_387_4882)"/>
<path d="M15.283 5.0116C13.1864 5.184 11.4118 5.7016 10.1086 6.5218C9.64103 6.817 9.40723 6.997 8.98943 7.3956C8.78643 7.5874 8.55263 7.7674 8.44903 7.8174C8.10403 7.9746 7.98143 7.9478 6.18383 7.3882C5.29083 7.1122 4.54343 6.8976 4.52803 6.913C4.46663 6.982 4.25583 7.649 4.19843 7.9746C4.10263 8.4806 4.11403 9.4502 4.21763 10.029C4.33263 10.6538 4.39403 10.8224 4.58943 11.0754C4.84243 11.3936 5.17963 11.6236 5.98463 12.0222C6.77803 12.417 7.23423 12.6776 7.47183 12.8808C7.76703 13.1376 7.77083 13.1452 7.93943 15.1076L8.09663 16.8708L8.25763 17.0126C8.78263 17.4764 9.54163 17.5836 10.3772 17.3116C11.1016 17.0778 11.5884 16.8018 11.7148 16.5528C11.7416 16.4952 11.96 15.8322 12.2016 15.0772C12.4392 14.326 12.65 13.7088 12.6654 13.7088C12.7382 13.7088 12.7804 14.0614 12.7612 14.5328C12.742 15.0618 12.6156 15.6596 12.4124 16.2116L12.3128 16.4684H12.4776C13.0488 16.4646 13.8344 16.0736 14.1794 15.6176C14.3136 15.4374 14.3826 15.2574 14.7504 14.0998C14.9804 13.3792 15.1836 12.7928 15.2028 12.8004C15.2794 12.8272 15.3102 13.0918 15.291 13.613C15.2718 14.165 15.1606 14.7054 14.9576 15.2382C14.9116 15.3494 14.8886 15.4528 14.9002 15.4644C14.9116 15.476 15.0382 15.4682 15.1762 15.4452C15.709 15.3532 16.211 15.0044 16.5636 14.4832C16.832 14.0846 16.9852 13.6898 17.2152 12.789C17.3532 12.26 17.3608 12.237 17.4144 12.329C17.5064 12.49 17.4834 13.4558 17.38 13.8774C17.334 14.0652 17.2994 14.2224 17.3072 14.23C17.334 14.2568 17.6368 14.1534 17.8438 14.0422C18.4418 13.728 19.1624 12.6202 19.557 11.409C19.7636 10.7762 19.8058 10.508 19.8058 9.8756C19.802 9.2356 19.7482 8.9098 19.5146 8.2084C19.0968 6.9474 18.3762 5.9086 17.51 5.3184C17.0424 4.9964 16.935 4.9696 16.249 4.9734C15.9308 4.9772 15.4938 4.9926 15.283 5.0116Z" fill="black"/>
<path d="M15.283 5.0116C13.1864 5.184 11.4118 5.7016 10.1086 6.5218C9.64103 6.817 9.40723 6.997 8.98943 7.3956C8.78643 7.5874 8.55263 7.7674 8.44903 7.8174C8.10403 7.9746 7.98143 7.9478 6.18383 7.3882C5.29083 7.1122 4.54343 6.8976 4.52803 6.913C4.46663 6.982 4.25583 7.649 4.19843 7.9746C4.10263 8.4806 4.11403 9.4502 4.21763 10.029C4.33263 10.6538 4.39403 10.8224 4.58943 11.0754C4.84243 11.3936 5.17963 11.6236 5.98463 12.0222C6.77803 12.417 7.23423 12.6776 7.47183 12.8808C7.76703 13.1376 7.77083 13.1452 7.93943 15.1076L8.09663 16.8708L8.25763 17.0126C8.78263 17.4764 9.54163 17.5836 10.3772 17.3116C11.1016 17.0778 11.5884 16.8018 11.7148 16.5528C11.7416 16.4952 11.96 15.8322 12.2016 15.0772C12.4392 14.326 12.65 13.7088 12.6654 13.7088C12.7382 13.7088 12.7804 14.0614 12.7612 14.5328C12.742 15.0618 12.6156 15.6596 12.4124 16.2116L12.3128 16.4684H12.4776C13.0488 16.4646 13.8344 16.0736 14.1794 15.6176C14.3136 15.4374 14.3826 15.2574 14.7504 14.0998C14.9804 13.3792 15.1836 12.7928 15.2028 12.8004C15.2794 12.8272 15.3102 13.0918 15.291 13.613C15.2718 14.165 15.1606 14.7054 14.9576 15.2382C14.9116 15.3494 14.8886 15.4528 14.9002 15.4644C14.9116 15.476 15.0382 15.4682 15.1762 15.4452C15.709 15.3532 16.211 15.0044 16.5636 14.4832C16.832 14.0846 16.9852 13.6898 17.2152 12.789C17.3532 12.26 17.3608 12.237 17.4144 12.329C17.5064 12.49 17.4834 13.4558 17.38 13.8774C17.334 14.0652 17.2994 14.2224 17.3072 14.23C17.334 14.2568 17.6368 14.1534 17.8438 14.0422C18.4418 13.728 19.1624 12.6202 19.557 11.409C19.7636 10.7762 19.8058 10.508 19.8058 9.8756C19.802 9.2356 19.7482 8.9098 19.5146 8.2084C19.0968 6.9474 18.3762 5.9086 17.51 5.3184C17.0424 4.9964 16.935 4.9696 16.249 4.9734C15.9308 4.9772 15.4938 4.9926 15.283 5.0116Z" fill="url(#paint2_linear_387_4882)"/>
<path d="M4.1567 11.8149C4.1261 12.0371 4.0685 12.2441 3.9727 12.4549C3.71969 13.0221 3.70829 13.0721 3.78109 13.2597C3.81549 13.3479 3.96509 13.5663 4.11449 13.7465C4.53989 14.2563 4.98829 15.0305 5.22609 15.6553C5.33349 15.9427 5.5097 16.1651 5.7013 16.2571C5.7779 16.2917 6.06149 16.3605 6.32989 16.4105C6.59829 16.4605 6.96229 16.5447 7.13489 16.5983C7.3113 16.6559 7.4645 16.6941 7.4721 16.6865C7.5065 16.6481 7.2077 13.5245 7.15389 13.3749C7.03509 13.0529 6.6403 12.7923 5.80089 12.4857C5.10709 12.2289 4.8121 12.0603 4.3943 11.6693L4.2027 11.4853L4.1567 11.8149Z" fill="black"/>
<path d="M4.1567 11.8149C4.1261 12.0371 4.0685 12.2441 3.9727 12.4549C3.71969 13.0221 3.70829 13.0721 3.78109 13.2597C3.81549 13.3479 3.96509 13.5663 4.11449 13.7465C4.53989 14.2563 4.98829 15.0305 5.22609 15.6553C5.33349 15.9427 5.5097 16.1651 5.7013 16.2571C5.7779 16.2917 6.06149 16.3605 6.32989 16.4105C6.59829 16.4605 6.96229 16.5447 7.13489 16.5983C7.3113 16.6559 7.4645 16.6941 7.4721 16.6865C7.5065 16.6481 7.2077 13.5245 7.15389 13.3749C7.03509 13.0529 6.6403 12.7923 5.80089 12.4857C5.10709 12.2289 4.8121 12.0603 4.3943 11.6693L4.2027 11.4853L4.1567 11.8149Z" fill="url(#paint3_linear_387_4882)"/>
<defs>
<linearGradient id="paint0_linear_387_4882" x1="-0.469468" y1="-0.877287" x2="12.8314" y2="1.47511" gradientUnits="userSpaceOnUse">
<stop stop-color="#81CD34"/>
<stop offset="1" stop-color="#00A182"/>
</linearGradient>
<linearGradient id="paint1_linear_387_4882" x1="4.14641" y1="2.19" x2="16.8148" y2="7.45797" gradientUnits="userSpaceOnUse">
<stop stop-color="#81CD34"/>
<stop offset="1" stop-color="#00A182"/>
</linearGradient>
<linearGradient id="paint2_linear_387_4882" x1="3.12415" y1="3.10021" x2="22.8991" y2="7.067" gradientUnits="userSpaceOnUse">
<stop stop-color="#81CD34"/>
<stop offset="1" stop-color="#00A182"/>
</linearGradient>
<linearGradient id="paint3_linear_387_4882" x1="3.50197" y1="10.705" x2="8.33746" y2="11.2595" gradientUnits="userSpaceOnUse">
<stop stop-color="#81CD34"/>
<stop offset="1" stop-color="#00A182"/>
</linearGradient>
</defs>
</svg>
