<svg width="24" height="24" viewBox="0 0 24 24" fill="none" xmlns="http://www.w3.org/2000/svg">
<path d="M21.307 4.42661C19.9904 2.80534 18.2721 1.55712 16.3232 0.806161C13.5418 -0.268395 10.46 -0.268395 7.67864 0.806161C5.4187 1.67923 3.47581 3.21568 2.10536 5.21354C0.734904 7.2114 0.00102436 9.57718 0.000183105 11.9999C0.000183105 12.2191 0.00715842 12.4383 0.0176214 12.6553C0.185537 15.7198 1.52117 18.6034 3.7499 20.7134C5.97863 22.8233 8.93105 23.9992 12.0001 23.9992C15.0692 23.9992 18.0216 22.8233 20.2503 20.7134C22.479 18.6034 23.8147 15.7198 23.9826 12.6553C23.9931 12.4407 24 12.2204 24 12.0012C23.9989 9.24202 23.048 6.56728 21.307 4.42661ZM21.8036 17.9289C21.8017 17.9289 21.8001 17.9289 21.798 17.9289H16.6234L14.9512 16.0126L16.5045 11.2315L19.256 9.9438L23.4101 12.9638C23.4122 12.9654 23.4149 12.966 23.4171 12.9673C23.2704 14.7237 22.7181 16.4221 21.8036 17.9289ZM7.37683 17.9289H2.20233C2.20008 17.9289 2.19847 17.9289 2.1966 17.9289C1.28215 16.4222 0.729765 14.7239 0.582889 12.9676C0.585303 12.966 0.587986 12.9654 0.590132 12.9638L4.74526 9.94326L7.49675 11.231L9.04902 16.0126L7.37683 17.9289ZM20.6656 4.50682C20.6656 4.50897 20.6632 4.51085 20.6624 4.51326L19.0653 9.4397L16.3138 10.7274L12.2684 7.7879V4.47705L16.4412 1.44708C16.4436 1.44521 16.445 1.44252 16.4474 1.44091C18.0712 2.12368 19.5149 3.17304 20.6656 4.50682ZM7.55282 1.44091C7.55523 1.44279 7.55657 1.44521 7.55899 1.44708L11.7318 4.47705V7.7879L7.68642 10.728L4.93494 9.44024L3.33733 4.51326C3.33733 4.51085 3.33491 4.50924 3.33411 4.50682C4.48499 3.17308 5.92889 2.12374 7.55282 1.44091ZM9.39242 23.158C9.39242 23.1545 9.39242 23.1507 9.39054 23.1472L7.80071 18.2584L9.47425 16.3428H14.526L16.1995 18.2584L14.6097 23.1472C14.6097 23.1507 14.6097 23.1545 14.6078 23.158C12.892 23.5548 11.1082 23.5548 9.39242 23.158Z" fill="#D4AC66"/>
</svg>
