<svg width="20" height="20" viewBox="0 0 20 20" fill="none" xmlns="http://www.w3.org/2000/svg">
<path d="M9.89137 0.000687182C7.65113 0.0228094 5.48358 0.798823 3.73804 2.20367L5.6247 4.39776C6.42739 3.77302 7.3543 3.32714 8.3433 3.09001C9.33231 2.85288 10.3606 2.82998 11.3591 3.02284C12.4547 3.23402 13.4958 3.71419 14.3747 4.39776L16.2636 2.20367C14.4592 0.752298 12.2066 -0.0264742 9.89137 0.000687182Z" fill="#C6C6CB"/>
<path d="M3.12246 2.74499C2.12782 3.687 1.3374 4.82351 0.800293 6.08395C0.263188 7.34438 -0.0091362 8.70182 0.000233836 10.072C0.0163157 12.1758 0.694975 14.2209 1.93972 15.9167C3.18447 17.6125 4.93196 18.8726 6.93373 19.5179C8.9355 20.1631 11.0897 20.1607 13.09 19.5109C15.0903 18.8611 16.8349 17.597 18.0758 15.8984C19.7125 13.6865 20.3547 10.77 19.8102 8.06571C19.3998 5.98566 18.34 4.08957 16.7836 2.65051L14.8947 4.8446C15.6526 5.56606 16.2423 6.44576 16.6218 7.4211C17.0013 8.39644 17.1612 9.44346 17.0902 10.4877C17.0209 11.5293 16.7211 12.5426 16.2125 13.4542L12.3647 9.73518L10.4236 5.54707L10.4202 11.8881L14.3102 15.6539C12.5758 17.001 10.1969 17.4489 8.09023 16.851C7.22974 16.6122 6.42245 16.212 5.71134 15.6717L9.62801 11.8893C9.62134 9.82854 9.65246 7.60222 9.62801 5.54262L7.68357 9.73629L3.80134 13.4865C2.6169 11.418 2.59023 8.74484 3.72912 6.653C4.09008 5.98186 4.55469 5.37192 5.10579 4.84571L3.2169 2.65274L3.12246 2.74388V2.74499Z" fill="#C6C6CB"/>
</svg>
