<svg xmlns:xlink="http://www.w3.org/1999/xlink" xmlns="http://www.w3.org/2000/svg" viewBox="0 0 24 24" fill="none" width="24"  height="24" >
    <path d="M11.7456 15.111V16.0642H12.7315V14.7437L12.5933 14.5049H12.3656L12.3717 14.7296C12.3717 14.7296 12.6055 14.7698 12.634 14.9143L12.5466 14.9966C12.5485 14.9946 12.2965 14.6213 11.7456 15.111Z" fill="black"/>
    <path fill-rule="evenodd" clip-rule="evenodd" d="M7.0035 18.8337V5.25936C7.37704 1.64509 12.0007 2.00724 12.0641 2.01221C12.0641 2.01221 12.0646 2.01225 12.0641 2.01221C16.9912 1.81756 17.0021 5.25936 17.0021 5.25936V7.83212H12.8087L12.8311 5.80521C11.949 5.02054 11.2639 5.78314 11.2639 5.78314L11.2863 9.18275C11.3961 8.50645 13.5364 8.55059 13.5364 8.55059C16.6484 8.55059 17.0021 10.3146 17.0021 10.3146V18.942C16.4268 22.5142 11.8595 21.9704 11.8595 21.9704C6.78197 22.0807 7.0035 18.8337 7.0035 18.8337ZM10.2923 13.2567V19.488H10.1642V19.8231H10.4996V19.9455H11.5057V19.8091H11.6399V16.568C11.6399 16.568 12.0037 16.0964 12.8452 16.2007V14.507C12.8452 14.507 13.577 14.1357 14.9328 14.1357V12.5864C14.9328 12.5864 14.4287 11.878 13.2579 12.6687C13.2579 12.6687 11.9204 13.3912 11.6378 12.5804H10.5341V12.6888H10.2862V12.9176H10.1662V13.1705H10.2882L10.2923 13.2567Z" fill="currentColor"/>
  </svg>