<svg width="18" height="17" viewBox="0 0 18 17" fill="none" xmlns="http://www.w3.org/2000/svg">
<path d="M2.36953 0C1.06273 0 0 1.06311 0 2.37031C0 3.67711 1.06273 4.74062 2.36953 4.74062C3.67633 4.74062 4.73984 3.67711 4.73984 2.37031C4.73984 1.06311 3.67633 0 2.36953 0ZM9.08906 0.842969C7.68666 0.854169 6.43196 0.96515 5.30156 1.16875C5.45436 1.53995 5.53984 1.94471 5.53984 2.37031C5.53984 3.02711 5.33891 3.63851 4.99531 4.14531C5.01731 4.14771 5.05222 4.15456 5.07422 4.17656C5.07422 4.01176 5.17266 4.01172 5.17266 4.01172C5.17266 4.01172 5.17267 3.97813 5.20547 3.97813C5.37027 4.01133 5.83247 4.24183 6.03047 4.34063C6.22847 4.43943 6.22891 4.47266 6.22891 4.47266C6.22891 4.47266 6.69066 4.47304 6.82266 4.43984C6.95466 4.43984 7.18562 4.34061 7.51562 4.24141C7.84563 4.14261 7.91134 4.11016 7.97734 4.11016C8.04334 4.11016 8.63763 4.14299 9.16563 4.20859C9.69363 4.27459 10.1883 4.47228 10.2875 4.53828L10.4523 4.57109L10.4852 4.47266L10.2211 4.37344C10.2211 4.37344 10.2547 4.20898 10.2547 4.17578C10.2547 4.14298 10.2871 4.11016 10.3203 4.11016C10.3531 4.11016 10.6504 4.17579 10.7492 4.20859C10.848 4.24179 11.1785 4.47266 11.2117 4.47266C11.2449 4.47266 11.2445 4.50547 11.2445 4.50547C11.2445 4.57147 11.1789 4.70312 11.1789 4.70312C11.1789 4.70312 11.2777 4.73633 11.3109 4.76953C11.3441 4.80233 11.4426 4.86799 11.5414 4.96719C11.6402 5.03319 11.607 5.13203 11.607 5.13203L11.8383 5.36328V5.46172L12.3992 6.02266V6.05547L12.1352 6.22031C12.1352 6.22031 12.4977 6.18715 12.7617 6.31875C13.0257 6.45075 13.0586 6.51681 13.0586 6.58281C12.9926 6.61561 12.8938 6.64922 12.8938 6.64922C12.6958 6.71522 12.2008 7.04531 12.2008 7.04531V7.07812L12.4648 7.14375C12.7616 6.87975 13.2899 6.78088 13.6859 6.84688C14.6191 7.02888 15.345 7.51226 15.7758 8.03906C16.1078 8.44506 16.3601 8.82345 16.5305 9.10625C17.7241 5.89545 17.5294 3.08597 17.525 3.03437L17.5086 2.83906L17.3453 2.73203C15.4509 1.48843 12.8327 0.870969 9.3375 0.842969H9.08906ZM5.13984 4.11016C5.13984 4.11016 5.10743 4.20863 5.10703 4.34063C5.63503 4.40663 5.73359 4.50547 5.73359 4.50547C5.73359 4.50547 5.93167 4.47266 6.03047 4.47266C5.86607 4.34066 5.13984 4.11016 5.13984 4.11016ZM7.74688 4.17578C7.71408 4.17618 6.85625 4.47266 6.85625 4.47266C6.85625 4.47266 7.08711 4.60469 7.12031 4.60469C7.15311 4.60469 7.61528 4.76994 7.81328 4.83594C7.97808 4.90194 8.07736 4.83594 8.11016 4.83594C8.14336 4.83594 8.70391 4.50547 8.70391 4.50547C8.20911 4.30747 7.74688 4.17578 7.74688 4.17578ZM4.90938 4.34063L4.87656 4.43984V4.40703C4.85216 4.40103 4.8345 4.39468 4.8125 4.38828C4.6725 4.55708 4.51457 4.71046 4.34297 4.84766C4.33377 4.98206 4.31563 5.24886 4.31563 5.29766C4.28283 5.36366 4.38125 5.39687 4.38125 5.39687L4.34844 5.75938H4.54609L4.57891 5.52891V5.66094H4.6125V5.4625H4.57891V5.33047L4.87578 5.49531L4.90938 5.56172L4.975 5.62734H5.04141L5.07422 5.59453V5.56172C4.87622 5.56172 4.87656 5.4625 4.87656 5.4625C4.87656 5.4625 4.90939 5.23163 4.94219 5.16563C4.97539 5.09963 5.10703 5.13281 5.10703 5.13281L5.07422 5.1H5.00859C4.94259 5.0668 4.74412 4.93476 4.67812 4.90156V4.86875L4.71094 4.83594V4.70391H4.74453C4.74453 4.67071 4.77734 4.6703 4.77734 4.6375C4.84334 4.6375 5.33828 4.53906 5.33828 4.53906L5.31797 4.53438C5.39477 4.52558 5.53594 4.50547 5.53594 4.50547L4.90938 4.34063ZM8.96875 4.57188C8.90275 4.57188 8.86953 4.60547 8.86953 4.60547C8.86953 4.60547 8.67183 4.73714 8.50703 4.83594C8.34223 4.93474 8.30936 4.96838 8.27656 5.03438C8.24336 5.06758 8.34219 5.19922 8.34219 5.19922L8.60625 5.52891C8.63905 5.52891 8.73828 5.59531 8.73828 5.59531C8.73828 5.59531 9.26609 5.56211 9.59609 5.52891H10.4531C10.4863 5.52891 10.4527 5.39683 10.3867 5.23203C10.3207 5.10003 10.2219 4.77031 10.2219 4.77031C10.1891 4.70431 10.1233 4.70428 9.72734 4.63828C9.36454 4.60508 9.03475 4.57188 8.96875 4.57188ZM7.15313 4.86875C7.13473 4.86875 7.10716 4.89006 7.08516 4.91406L7.02109 4.93516L6.9875 5.16563H7.02109L7.08672 5.13281C7.08672 5.13281 7.12034 5.13243 7.18594 5.16563C7.25194 5.16563 7.28438 5.09959 7.28438 5.03359C7.28438 4.93719 7.19152 4.90394 7.18672 4.90234C7.17592 4.87274 7.15313 4.86875 7.15313 4.86875ZM4.23047 4.93203C4.14327 4.99563 4.05336 5.05419 3.96016 5.10859C3.97616 5.16259 4.01875 5.16563 4.01875 5.16563L3.98594 5.52891H4.21641V5.49609H4.18359V5.4625H4.15078L4.18359 5.39687L4.21641 5.23203L4.18359 5.19844V5.13281L4.21641 5.1L4.23047 4.93203ZM7.54922 5.00078V5.26484C7.54922 5.26484 7.91183 5.26526 8.40703 5.36406C8.07703 5.13326 7.54922 5.00078 7.54922 5.00078ZM10.6508 5.06719L10.4859 5.13281L10.6844 5.49609L11.3445 5.72656C11.0801 5.16616 10.6508 5.06719 10.6508 5.06719ZM3.90625 5.14297C3.45105 5.39617 2.92711 5.54141 2.37031 5.54141C1.87431 5.54141 1.4059 5.42393 0.9875 5.21953C1.0603 5.88393 1.18484 6.66071 1.39844 7.50391C1.54644 8.08791 1.98551 8.55313 2.55391 8.75313C3.18471 8.97473 3.94768 9.14739 4.61328 9.25859C7.68768 9.74939 10.6601 11.6967 11.6797 13.4055C11.6797 13.4055 11.7936 13.6132 11.8344 13.7C12.078 14.1876 12.1989 14.6739 12.1805 15.1047C13.8709 13.7979 15.0337 12.2518 15.8289 10.7078C15.7345 9.87981 14.8649 9.71953 14.5117 9.71953C13.8189 9.71953 13.1253 9.48931 12.6305 8.89531V8.92813C12.3337 9.32413 12.0039 9.32422 11.8719 9.32422C11.7399 9.32422 11.3113 9.12613 11.1461 8.92813C10.9813 8.73013 10.9812 8.36719 10.9812 8.36719L10.3211 8.13672L9.49609 7.67422L9.36406 7.64141C9.10006 7.77341 8.77024 7.67495 8.47344 7.44375C8.44024 7.57575 8.27534 7.90551 8.07734 8.07031C7.87934 8.23511 7.48352 8.46641 7.18672 8.46641C6.88992 8.46641 6.23003 8.13622 6.03203 7.67422C5.83403 7.21222 6.03203 6.71719 6.03203 6.71719L5.70156 6.65156L5.56953 6.48672C5.56953 6.48672 5.17411 6.81638 4.74531 6.68438C4.31651 6.55238 3.95271 6.19016 3.85391 5.86016C3.78791 5.53016 3.88711 5.2332 3.92031 5.2C3.91391 5.178 3.91145 5.16297 3.90625 5.14297ZM6.51875 5.21953C6.494 5.22368 6.49375 5.23203 6.49375 5.23203C7.05455 5.36403 7.21954 5.39649 7.25234 5.42969C7.25234 5.42969 7.28595 5.49611 7.31875 5.52891C6.85675 5.43011 6.42811 5.49611 6.32891 5.52891C6.39491 5.62771 6.39491 5.75939 6.32891 5.85859C6.26291 5.92459 6.06484 6.02344 6.06484 6.02344H5.99844L5.83359 5.98984C5.68479 5.96024 5.72361 5.71751 5.73281 5.67031C5.72721 5.71151 5.72637 5.75259 5.73438 5.79219C5.76757 5.95699 5.80042 5.95703 5.89922 5.95703C5.73442 5.89103 5.76722 5.6273 5.89922 5.4625C5.99802 5.3305 6.09766 5.42891 6.09766 5.42891C6.09766 5.42891 5.99842 5.29728 5.89922 5.36328C5.82602 5.41208 5.75359 5.53336 5.73359 5.66016L5.53594 5.72578C5.46994 5.59378 5.17344 5.23125 5.17344 5.23125L5.10703 5.49531C5.13983 5.52811 5.30548 5.79181 5.33828 5.85781L5.23906 5.95625C5.23906 5.95625 5.20625 6.02267 5.20625 6.05547C5.20625 6.08867 5.17344 6.12109 5.17344 6.12109L5.04141 6.1875H5.00859L4.54688 5.82578V6.08984H4.57969C4.61289 6.15584 4.67855 6.28791 4.84375 6.35391C4.97575 6.41991 5.14025 6.41992 5.20625 6.38672C5.27225 6.41992 5.30508 6.41954 5.33828 6.45234C5.47028 6.51834 5.50313 6.48594 5.50313 6.48594L5.70078 6.41953H5.73438L5.76719 6.38672L5.83359 6.25469C5.83359 6.25469 6.16331 6.2875 6.29531 6.2875C6.42731 6.0895 6.85593 5.79258 7.15313 5.75938C7.44993 5.75938 7.94541 5.82509 8.34141 6.22109C8.70421 6.61709 8.60547 7.14531 8.60547 7.14531L9.33125 7.37734L9.00078 7.14609C8.73678 6.48609 8.11016 5.89141 8.11016 5.89141C8.11016 5.89141 7.94529 5.85859 7.84609 5.85859C7.74729 5.82539 7.68125 5.76016 7.68125 5.76016C7.68125 5.76016 7.64841 5.72733 7.58281 5.62813L7.51641 5.49609C7.51641 5.49609 7.45036 5.43006 7.35156 5.36406C7.25276 5.29806 6.89019 5.26523 6.69219 5.23203C6.59319 5.21543 6.5435 5.21538 6.51875 5.21953ZM4.97578 5.62813L4.90938 5.66094V5.925L4.97578 5.89141V5.62813ZM9.45469 5.72734C9.03404 5.72734 8.77031 5.76016 8.77031 5.76016C8.96831 5.99096 9.16641 6.32109 9.16641 6.32109C9.49601 5.99109 10.1889 5.85899 11.0797 5.89219C10.4527 5.76019 9.87534 5.72734 9.45469 5.72734ZM8.275 5.925C8.473 6.057 8.77031 6.41953 8.77031 6.41953L8.86875 6.45234L9.06719 6.41953C8.70439 5.95753 8.275 5.925 8.275 5.925ZM11.8711 6.02422C11.8711 6.02422 11.8055 6.15626 11.7727 6.18906C11.7399 6.22186 11.5086 6.2547 11.3766 6.2875C11.2446 6.3535 11.0137 6.45235 10.9477 6.51875C10.9145 6.55155 10.9148 6.65079 10.9148 6.68359C10.9148 6.68359 10.9362 6.69433 10.9602 6.70312C10.9538 6.69672 10.9477 6.68999 10.9477 6.68359V6.58516C10.9477 6.58516 11.3767 6.25469 12.0367 6.25469L12.1352 6.05703L11.8711 6.02422ZM10.9602 6.70312C10.9702 6.71313 10.9836 6.72287 10.9992 6.73047L11.0141 6.71719C10.9997 6.71719 10.979 6.70993 10.9602 6.70312ZM10.9992 6.73047L10.7164 6.98125L10.7828 7.04688L11.5086 7.27813C11.6738 7.14613 11.9047 7.11328 11.9047 7.11328C11.7727 7.04728 11.2121 6.816 11.0469 6.75C11.0469 6.75 11.0232 6.74247 10.9992 6.73047ZM7.77969 6.48594C7.41689 6.45314 7.15313 6.78281 7.15313 6.78281L7.41719 6.98125L7.48281 6.94766L7.77969 6.48594ZM7.94531 6.55156L7.68125 7.01406L7.71406 7.04688L8.24219 7.07969C8.24259 6.71689 7.94531 6.55156 7.94531 6.55156ZM7.02109 6.98125C6.79029 7.41005 6.95469 7.70703 6.95469 7.70703L7.25156 7.27813V7.2125L7.02109 6.98125ZM10.5852 7.07969L10.0234 7.575L10.4531 7.70703L10.882 7.24531L10.6508 7.14609L10.5852 7.07969ZM12.9711 7.14844C12.8256 7.15589 12.6886 7.18683 12.5648 7.24453C12.598 7.27773 12.6305 7.27814 12.6633 7.31094C12.8613 7.44294 12.9606 7.50867 12.9938 7.80547C13.0266 8.03627 12.9601 8.36608 12.7953 8.66328C13.7197 9.29048 15.0068 8.79583 15.5016 9.29063C15.4151 8.19338 13.9894 7.09629 12.9711 7.14844ZM8.20938 7.31094L7.68125 7.34453L7.64766 7.37734L7.8125 7.90547C8.1429 7.67387 8.20938 7.31094 8.20938 7.31094ZM11.1461 7.34375L10.6836 7.87188L11.0141 7.97031C11.0801 7.70671 11.3438 7.41016 11.3438 7.41016L11.1461 7.34375ZM7.35078 7.47656L7.02109 7.87188C7.25229 8.06948 7.61484 7.97109 7.61484 7.97109L7.41719 7.47656H7.35078ZM12.4984 7.70703C12.3664 7.70703 12.1359 8.00391 12.1359 8.00391L12.2016 8.10234L12.2344 8.06953L12.4984 7.73984V7.70703ZM12.6641 7.73984L12.4 8.10234V8.13594H12.7625C12.8285 7.90514 12.6641 7.73984 12.6641 7.73984ZM12.0367 8.16875C11.8719 8.49875 11.9047 8.72969 11.9047 8.72969L12.0695 8.36641V8.30078C12.1023 8.30078 12.0699 8.23475 12.0367 8.16875ZM12.7625 8.33359L12.3664 8.36719L12.3336 8.4L12.432 8.82891C12.4324 8.82851 12.5317 8.72966 12.6305 8.59766C12.7293 8.46566 12.7625 8.33359 12.7625 8.33359ZM12.1359 8.53203L11.9375 8.89453L11.9711 8.92813C12.1359 8.99413 12.3008 8.92813 12.3008 8.92813L12.1687 8.53203H12.1359ZM3.35078 10.2445C3.10791 10.247 2.77458 10.2924 2.55078 10.6164C3.70278 12.8968 5.64347 15.1951 8.90547 16.7203L9.22109 16.868L9.50703 16.7297C10.2734 16.3713 10.9638 15.968 11.5914 15.5352C11.8542 15.1648 11.8828 14.5838 11.6148 13.9906C11.59 13.9342 11.4715 13.7176 11.4383 13.6664C10.3947 12.0536 6.89265 10.3701 3.55625 10.2477C3.50275 10.2477 3.43174 10.2437 3.35078 10.2445Z" fill="#C6C6CB"/>
</svg>
