<svg width="20" height="20" viewBox="0 0 20 20" fill="none" xmlns="http://www.w3.org/2000/svg">
<path d="M13.1326 0.233081C14.2678 0.0630956 15.3419 0.00170898 16.2983 0.00170898C16.8053 0.00170898 17.3121 0.0195669 17.8045 0.0547247C18.9436 0.13609 19.864 1.05644 19.9454 2.19556C20.0321 3.40979 20.0434 5.05205 19.7708 6.87121L13.1326 0.233081ZM0.229309 13.1289C-0.0432483 14.948 -0.0319755 16.5903 0.0547472 17.8045C0.136112 18.9436 1.05658 19.864 2.19558 19.9453C2.6879 19.9805 3.19462 19.9984 3.70178 19.9984C3.70201 19.9984 3.70201 19.9984 3.70223 19.9984C4.65852 19.9984 5.73257 19.937 6.86755 19.7671L0.229309 13.1289ZM19.5234 8.20241C18.9734 10.6719 17.8523 13.3427 15.6861 15.6596C15.6775 15.6687 15.6687 15.6775 15.6596 15.6861C13.3531 17.8426 10.6873 18.9671 8.19875 19.5198L0.476753 11.7977C1.02667 9.32813 2.14781 6.65736 4.31398 4.34052C4.32257 4.33137 4.33139 4.32255 4.34054 4.31396C6.64701 2.1575 9.31286 1.033 11.8014 0.480302L19.5234 8.20241ZM14.1395 8.24594L13.3415 7.44791L13.9623 6.82713C14.1803 6.60915 14.1803 6.25578 13.9623 6.03792C13.7443 5.82005 13.3911 5.82005 13.1731 6.03792L12.5523 6.6587L11.7543 5.86068C11.5364 5.64292 11.1831 5.64281 10.9651 5.86068C10.7471 6.07865 10.7471 6.43202 10.9651 6.64989L11.7631 7.44791L10.8509 8.36012L10.0528 7.56209C9.83498 7.34434 9.48173 7.34422 9.26364 7.56209C9.04566 7.78007 9.04566 8.13343 9.26364 8.3513L10.0617 9.14933L9.14946 10.0615L8.35143 9.26351C8.13346 9.04564 7.7802 9.04564 7.56222 9.26351C7.34425 9.48149 7.34425 9.83485 7.56222 10.0527L8.36025 10.8507L7.44805 11.7629L6.65002 10.9649C6.43204 10.7471 6.07879 10.7471 5.86081 10.9649C5.64283 11.1829 5.64283 11.5363 5.86081 11.7541L6.65884 12.5522L6.03805 13.1729C5.82007 13.3909 5.82007 13.7443 6.03805 13.9622C6.14709 14.0711 6.28985 14.1256 6.43271 14.1256C6.57557 14.1256 6.71833 14.0711 6.82737 13.9622L7.44816 13.3414L8.24618 14.1394C8.35523 14.2483 8.49798 14.3028 8.64084 14.3028C8.78371 14.3028 8.92646 14.2483 9.03551 14.1394C9.25348 13.9214 9.25348 13.5681 9.03551 13.3502L8.23748 12.5522L9.14968 11.64L9.94771 12.438C10.0568 12.5469 10.1995 12.6014 10.3424 12.6014C10.4852 12.6014 10.628 12.5469 10.737 12.438C10.955 12.22 10.955 11.8666 10.737 11.6488L9.93901 10.8507L10.8512 9.93854L11.6492 10.7366C11.7583 10.8455 11.901 10.9 12.0439 10.9C12.1867 10.9 12.3295 10.8455 12.4386 10.7366C12.6565 10.5186 12.6565 10.1652 12.4386 9.94735L11.6405 9.14933L12.5527 8.23712L13.3508 9.03515C13.4598 9.14408 13.6026 9.19855 13.7454 9.19855C13.8882 9.19855 14.031 9.14408 14.1401 9.03515C14.3574 8.81728 14.3574 8.46392 14.1395 8.24594Z" fill="#C6C6CB"/>
</svg>
