<svg width="20" height="20" viewBox="0 0 20 20" fill="none" xmlns="http://www.w3.org/2000/svg">
<path d="M19.4373 3.92333H8.58629C9.08428 3.56554 9.40899 2.98173 9.40899 2.32167C9.40899 1.23292 8.5264 0.350342 7.43766 0.350342C6.34892 0.350342 5.46634 1.233 5.46634 2.32174C5.46634 3.40941 6.34721 4.29127 7.43445 4.29299C7.25802 4.48614 7.1479 4.74003 7.13932 5.02015C6.95203 4.84143 6.71886 4.70552 6.45154 4.63292C5.59511 4.40053 4.71131 4.90617 4.47857 5.76318L3.09599 10.8544C3.08192 10.9062 3.02611 11.1478 3.02303 11.1654C3.02025 11.1818 3.01782 11.1982 3.01574 11.2147C3.01339 11.2338 3.0116 11.2529 3.01024 11.272C3.00917 11.2876 3.00831 11.3032 3.00796 11.3189C3.00746 11.3393 3.00767 11.3595 3.00831 11.3798C3.0086 11.389 3.00796 11.3979 3.00846 11.407C3.13801 13.7221 2.25078 15.9687 0.574367 17.5706L0.331409 17.8028C-0.0966271 18.2118 -0.112062 18.8903 0.296894 19.3183C0.507482 19.5387 0.789529 19.6497 1.07208 19.6497C1.33826 19.6497 1.6048 19.5511 1.81238 19.3529L2.05534 19.1206C3.68495 17.5635 4.72689 15.5269 5.05352 13.3388C6.96568 14.8184 8.48739 16.7448 9.48252 18.9599C9.66102 19.3573 10.0518 19.5927 10.4609 19.5927C10.6077 19.5927 10.7569 19.5624 10.8995 19.4983C11.4396 19.2557 11.6806 18.6213 11.438 18.0813C10.2764 15.496 8.48939 13.2529 6.24016 11.5462L6.9859 8.80009C7.44317 9.2477 8.05978 9.49981 8.69919 9.49981C8.72792 9.49981 8.75679 9.49931 8.78558 9.49831C9.38005 9.47723 9.94485 9.23884 10.3745 8.83589L11.2444 9.25599C11.5821 9.41906 11.9453 9.49845 12.3061 9.49845C12.9319 9.49845 13.5506 9.25999 14.0168 8.8068L16.6739 6.22387C16.7082 6.1905 16.7388 6.15491 16.7676 6.11832C17.2856 6.02085 17.6775 5.57195 17.6775 5.0666H19.4759C19.7653 5.0666 19.9999 4.832 19.9999 4.54259V4.486C20.0001 4.1753 19.7482 3.92333 19.4373 3.92333ZM8.7097 7.35584C8.65903 7.35777 8.5617 7.34805 8.47946 7.26316L7.6256 6.38258C7.64311 6.24273 7.64225 6.10367 7.62381 5.96848C7.78953 6.07559 7.98661 6.13847 8.1987 6.13847H9.86482L8.93272 7.24708C8.85676 7.33755 8.76036 7.35413 8.7097 7.35584ZM12.1769 7.32561L11.8147 7.15068L12.3286 6.53943C12.4303 6.41845 12.4997 6.28146 12.5397 6.13855H13.6863L12.5228 7.26959C12.431 7.3587 12.2922 7.38121 12.1769 7.32561Z" fill="#C6C6CB"/>
</svg>
