<svg width="20" height="20" viewBox="0 0 20 20" fill="none" xmlns="http://www.w3.org/2000/svg">
<path d="M0.249173 16.0862C-0.0830576 16.4185 -0.0830576 16.9572 0.249173 17.2895L1.45255 18.4972C1.7849 18.8294 2.32362 18.8294 2.65593 18.4972L5.66527 15.4904L3.25847 13.0811L0.249173 16.0862Z" fill="#C6C6CB"/>
<path d="M3.86079 12.479L6.26759 14.8858C7.28458 13.8688 9.06414 14.7607 11.1773 14.9811L3.76465 7.56836C3.9859 9.68238 4.87695 11.4628 3.86079 12.479Z" fill="#C6C6CB"/>
<path d="M16.4939 13.0775C19.4854 10.1279 19.5193 5.31169 16.5696 2.32023C16.5688 2.31935 16.5679 2.31847 16.5671 2.31759C13.6225 -0.711655 8.77967 -0.780271 5.75042 2.16436C5.72174 2.19225 5.69329 2.22033 5.66505 2.24866C4.51824 3.30982 3.82705 4.7739 3.73657 6.33372L12.4088 15.006C13.9686 14.9155 15.4327 14.2243 16.4939 13.0775Z" fill="#C6C6CB"/>
<path d="M17.3762 19.9989C18.7862 19.9989 19.9293 18.8558 19.9293 17.4457C19.9293 16.0357 18.7862 14.8926 17.3762 14.8926C15.9661 14.8926 14.823 16.0357 14.823 17.4457C14.823 18.8558 15.9661 19.9989 17.3762 19.9989Z" fill="#C6C6CB"/>
</svg>
