<svg width="20" height="20" viewBox="0 0 20 20" fill="none" xmlns="http://www.w3.org/2000/svg">
<path d="M14.1016 14.0625C12.8089 14.0625 11.7578 15.1136 11.7578 16.4062C11.7578 17.6989 12.8089 18.7891 14.1016 18.7891C15.3942 18.7891 16.4453 17.6989 16.4453 16.4062C16.4453 15.1136 15.3942 14.0625 14.1016 14.0625Z" fill="#C6C6CB"/>
<path d="M19.5391 8.15034C20.8035 5.17151 19.3516 1.73171 16.3728 0.467294C13.3941 -0.79712 9.95418 0.592685 8.6898 3.57143C8.36265 4.34206 8.23297 5.14128 8.24269 5.92784L18.0924 10.1088C18.665 9.5694 19.212 8.92089 19.5391 8.15034V8.15034Z" fill="#C6C6CB"/>
<path d="M8.41406 7.27344C8.75445 8.63422 9.56289 9.86445 10.762 10.6879L8.88434 15.1115C8.63148 15.7072 8.90937 16.3952 9.5052 16.6481C10.101 16.901 10.7889 16.623 11.0418 16.0273L12.9195 11.6037C14.3448 11.8943 15.7914 11.6213 17.0068 10.9207L8.41406 7.27344Z" fill="#C6C6CB"/>
<path d="M5.89391 20C6.54113 20 7.06578 19.4753 7.06578 18.8281V13.9444C7.49852 13.8566 7.90441 13.7059 8.29516 13.5272L9.06285 11.7188H1.1875C2.0325 12.8384 3.29645 13.655 4.72203 13.9444V18.8281C4.72203 19.4753 5.24664 20 5.89391 20V20Z" fill="#C6C6CB"/>
<path d="M7.84105 2.69922C7.23031 2.48344 6.58305 2.34375 5.89844 2.34375C2.66242 2.34375 0 4.96711 0 8.20312C0 9.04027 0.192891 9.82668 0.50918 10.5469H8.88484C7.10121 8.55582 6.5473 5.65996 7.62766 3.11395C7.68914 2.9691 7.7709 2.83828 7.84105 2.69922V2.69922Z" fill="#C6C6CB"/>
</svg>
