<svg width="13" height="19" viewBox="0 0 13 19" fill="none" xmlns="http://www.w3.org/2000/svg">
<path fill-rule="evenodd" clip-rule="evenodd" d="M6.8279 13.8656L7.83018 15.9056L9.35117 12.7718C9.95788 11.5215 11.1687 9.56231 12.6315 9.50099H12.6661L12.6315 9.49949C11.1687 9.43817 9.95526 7.47995 9.35117 6.22864L6.34378 0L5.34149 2.03999L8.66376 8.95759C8.66376 8.95759 9.65243 9.47905 10.19 9.50049C9.65243 9.52193 8.66376 10.0434 8.66376 10.0434L6.8279 13.8656Z" fill="#C6C6CB"/>
<path fill-rule="evenodd" clip-rule="evenodd" d="M5.83873 5.13435L4.83644 3.09436L3.31546 6.22812C2.70822 7.47794 1.49741 9.43716 0.0345797 9.49898H0L0.0345797 9.50047C1.49741 9.56179 2.71084 11.52 3.31494 12.7713L6.32285 19L7.32514 16.96L3.94156 9.94167C3.94156 9.94167 3.0142 9.52091 2.47664 9.49948C3.0142 9.47804 3.92008 9.09317 3.92008 9.09317L5.83873 5.13435Z" fill="#C6C6CB"/>
<path fill-rule="evenodd" clip-rule="evenodd" d="M6.33699 7.01526L6.94004 8.25909L7.54309 9.50292L6.94004 10.7468L6.33699 11.9906L5.73342 10.7468L5.13037 9.50292L5.73342 8.25909L6.33699 7.01526Z" fill="#C6C6CB"/>
</svg>
