<svg width="20" height="20" viewBox="0 0 20 20" fill="none" xmlns="http://www.w3.org/2000/svg">
<path d="M13.9094 15.2435C12.0345 16.5409 9.81726 17.2334 7.53972 17.2334C7.28878 17.2334 7.03725 17.225 6.78518 17.208C4.97842 17.0867 3.24849 16.5358 1.72913 15.6169C2.07834 16.1269 2.47683 16.6087 2.92338 17.0553C4.81274 18.9446 7.32477 19.9851 9.99673 19.9851C11.6665 19.9851 13.2737 19.5788 14.7056 18.8129C14.6598 17.5846 14.3887 16.3726 13.9094 15.2435Z" fill="#C6C6CB"/>
<path d="M11.8274 0.145508C9.58038 0.803416 7.63366 2.22943 6.31936 4.18963C5.01234 6.13897 4.43445 8.46949 4.67227 10.7961C6.31971 10.7961 7.96501 10.3853 9.42318 9.60357C9.4848 7.73008 10.0136 5.90054 10.962 4.29056C11.7584 2.9386 12.8325 1.76662 14.1034 0.85523C13.3787 0.528718 12.6156 0.290477 11.8274 0.145508Z" fill="#C6C6CB"/>
<path d="M16.8529 9.6426C15.8183 7.53629 14.0893 5.87071 11.9559 4.91333C11.115 6.35153 10.6471 7.98421 10.5944 9.65608C12.1861 10.6462 13.5061 12.0189 14.4262 13.6452C15.2029 15.0181 15.6816 16.5432 15.8328 18.1082C16.2686 17.7938 16.6826 17.4427 17.0701 17.0552C17.2496 16.8757 17.4213 16.6905 17.5853 16.5002C18.1602 14.2059 17.9033 11.7812 16.8529 9.6426Z" fill="#C6C6CB"/>
<path d="M3.48855 10.7237C3.27301 8.18923 3.92178 5.66048 5.34576 3.5367C6.33053 2.06795 7.63388 0.868026 9.14304 0.0150146C6.79314 0.212344 4.61009 1.22181 2.92341 2.90845C1.11536 4.7165 0.0853792 7.09485 0 9.63774C1.08699 10.2089 2.27183 10.5771 3.48855 10.7237Z" fill="#C6C6CB"/>
<path d="M9.96329 10.6442C8.33858 11.5123 6.52483 11.9684 4.68939 11.9684V11.968C2.82804 11.968 1.46717 11.609 0.0407715 10.9623C0.115405 11.7346 0.278544 12.488 0.524288 13.2109C2.22804 14.8758 4.47045 15.8777 6.86369 16.0384C9.19409 16.1949 11.4911 15.5374 13.3821 14.1811C12.5573 12.7396 11.3804 11.5229 9.96329 10.6442Z" fill="#C6C6CB"/>
<path d="M12.6144 3.9262C14.9149 5.00706 16.7787 6.8323 17.9051 9.12582C18.6939 10.7317 19.0814 12.4823 19.0558 14.2362C19.6739 12.9222 20 11.4771 20 9.98188C20 7.30992 18.9595 4.79789 17.0702 2.90849C16.5203 2.35866 15.9175 1.88128 15.2736 1.47998C14.2472 2.12875 13.3451 2.9596 12.6144 3.9262Z" fill="#C6C6CB"/>
</svg>
