<svg width="16" height="17" viewBox="0 0 16 17" fill="none" xmlns="http://www.w3.org/2000/svg">
<path d="M12.6041 4.6328L11.4903 2.7878C11.3177 2.4984 11.0427 2.28434 10.7198 2.18799C10.3969 2.09164 10.0496 2.12001 9.74658 2.26748C9.7072 2.28436 5.91595 4.6328 5.91595 4.6328H12.6041Z" fill="#D4AC66"/>
<path d="M4.84998 4.63287C4.84998 4.63287 9.3837 1.81288 9.48217 1.76975L8.82686 1.12287C8.58347 0.878186 8.2532 0.739681 7.90808 0.737573C7.56297 0.735466 7.23103 0.869927 6.98467 1.11162L3.33405 4.63287H4.84998Z" fill="#D4AC66"/>
<path d="M15.1213 8.95557H11.5016C11.0458 8.95557 10.6087 9.13662 10.2865 9.45889C9.96419 9.78115 9.78314 10.2182 9.78314 10.674C9.78314 11.1298 9.96419 11.5669 10.2865 11.8891C10.6087 12.2114 11.0458 12.3924 11.5016 12.3924H15.1213C15.3212 12.3924 15.5129 12.313 15.6542 12.1717C15.7956 12.0303 15.875 11.8386 15.875 11.6387V9.71213C15.8751 9.51193 15.7958 9.31987 15.6545 9.17804C15.5132 9.03622 15.3215 8.95621 15.1213 8.95557ZM12.2581 10.4687C12.3318 10.4702 12.4019 10.5004 12.4534 10.553C12.505 10.6056 12.5338 10.6763 12.5338 10.7499C12.5338 10.8236 12.505 10.8943 12.4534 10.9469C12.4019 10.9994 12.3318 11.0297 12.2581 11.0312C12.1845 11.0297 12.1144 10.9994 12.0629 10.9469C12.0113 10.8943 11.9825 10.8236 11.9825 10.7499C11.9825 10.6763 12.0113 10.6056 12.0629 10.553C12.1144 10.5004 12.1845 10.4702 12.2581 10.4687Z" fill="#D4AC66"/>
<path d="M11.5016 12.955C8.48243 12.8422 8.48478 8.50651 11.5016 8.39313H13.8584H14.4209V6.60156C14.4208 6.22864 14.2726 5.87104 14.0089 5.60734C13.7452 5.34365 13.3876 5.19545 13.0147 5.19531H1.53125C1.15833 5.19545 0.800724 5.34365 0.53703 5.60734C0.273336 5.87104 0.125135 6.22864 0.125 6.60156V14.8534C0.125135 15.2264 0.273336 15.584 0.53703 15.8477C0.800724 16.1114 1.15833 16.2596 1.53125 16.2597H13.0147C13.3876 16.2596 13.7452 16.1114 14.0089 15.8477C14.2726 15.584 14.4208 15.2264 14.4209 14.8534V12.955C14.0806 12.9526 11.8955 12.9567 11.5016 12.955Z" fill="#D4AC66"/>
</svg>
