<svg width="20" height="20" viewBox="0 0 20 20" fill="none" xmlns="http://www.w3.org/2000/svg">
<path d="M0 9.41406H4.1557C4.19418 7.94707 4.37355 6.56504 4.6727 5.3125H1.21574C0.554101 6.54746 0.0864844 7.93906 0 9.41406H0Z" fill="#E8E4F9"/>
<path d="M4.1557 10.5859H0C0.0864844 12.0609 0.554102 13.4525 1.21574 14.6875H4.67273C4.37359 13.435 4.19418 12.0529 4.1557 10.5859Z" fill="#E8E4F9"/>
<path d="M9.4142 9.41406V5.3125H5.88447C5.56377 6.55375 5.36955 7.94836 5.32709 9.41406H9.4142Z" fill="#E8E4F9"/>
<path d="M9.41405 4.14062V0C8.13096 0.358359 6.9944 1.99777 6.24432 4.14062H9.41405Z" fill="#E8E4F9"/>
<path d="M9.41405 20V15.8594H6.24432C6.9944 18.0022 8.13096 19.6416 9.41405 20Z" fill="#E8E4F9"/>
<path d="M10.5859 0V4.14062H13.7557C13.0056 1.99777 11.869 0.358359 10.5859 0Z" fill="#E8E4F9"/>
<path d="M14.673 9.41406C14.6305 7.94836 14.4364 6.55375 14.1157 5.3125H10.5859V9.41406H14.673Z" fill="#E8E4F9"/>
<path d="M9.4142 10.5859H5.32709C5.36959 12.0517 5.56377 13.4462 5.88447 14.6875H9.4142V10.5859Z" fill="#E8E4F9"/>
<path d="M15.0006 4.1409H18.0377C16.8249 2.4818 15.1174 1.08016 13.1282 0.419922C13.8927 1.32242 14.5321 2.67957 15.0006 4.1409Z" fill="#E8E4F9"/>
<path d="M4.99969 15.8594H1.96259C3.17544 17.5185 4.8829 18.9201 6.87212 19.5803C6.10762 18.6778 5.46821 17.3207 4.99969 15.8594Z" fill="#E8E4F9"/>
<path d="M4.9997 4.1409C5.46817 2.67957 6.10763 1.32242 6.87208 0.419922C4.8829 1.08016 3.17544 2.4818 1.96259 4.1409H4.9997Z" fill="#E8E4F9"/>
<path d="M15.0006 15.8594C14.5321 17.3207 13.8926 18.6778 13.1282 19.5803C15.1174 18.9201 16.8248 17.5185 18.0377 15.8594H15.0006Z" fill="#E8E4F9"/>
<path d="M10.5859 10.5859V14.6875H14.1157C14.4364 13.4462 14.6306 12.0517 14.673 10.5859H10.5859Z" fill="#E8E4F9"/>
<path d="M15.3272 5.3125C15.6263 6.56504 15.8057 7.94707 15.8442 9.41406H19.9999C19.9134 7.93906 19.4458 6.54746 18.7842 5.3125H15.3272Z" fill="#E8E4F9"/>
<path d="M10.5859 15.8594V20C11.869 19.6416 13.0056 18.0022 13.7557 15.8594H10.5859Z" fill="#E8E4F9"/>
<path d="M19.9999 10.5859H15.8442C15.8057 12.0529 15.6264 13.435 15.3272 14.6875H18.7842C19.4458 13.4525 19.9134 12.0609 19.9999 10.5859Z" fill="#E8E4F9"/>
</svg>
