<svg width="40" height="40" viewBox="0 0 40 40" fill="none" xmlns="http://www.w3.org/2000/svg">
<path d="M21.6239 3.21623C22.0767 2.61608 22.0039 1.34313 21.9395 0.220215C21.937 0.171813 21.9343 0.124476 21.9316 0.0764013C21.2969 0.0157963 20.6544 -0.0177002 20.0041 -0.0177002C17.5123 -0.0177002 15.1281 0.441342 12.9276 1.27351C14.4973 2.02788 16.9272 3.3263 19.628 5.24478C20.5496 4.45175 21.2445 3.71966 21.6239 3.21623Z" fill="#D4AC66"/>
<path d="M31.7665 14.6385C30.7799 14.75 29.9478 14.9119 29.2362 15.139C32.638 21.0784 33.9644 28.5822 34.2889 34.0184C37.6591 30.5846 39.7993 25.9425 40.0017 20.8006C37.6795 17.9462 34.6033 14.3167 31.7665 14.6385Z" fill="#D4AC66"/>
<path d="M11.5442 9.5117C13.9344 9.01433 16.18 7.81132 17.9704 6.54148C14.2352 3.96888 11.1198 2.63377 10.5001 2.37964C6.62487 4.47452 3.52386 7.8123 1.7198 11.8565C4.06472 10.9222 6.60431 10.4469 9.0987 9.98376C9.90564 9.83389 10.7398 9.67902 11.5442 9.5117Z" fill="#D4AC66"/>
<path d="M25.3786 10.0936C25.592 10.308 25.8048 10.5261 26.0161 10.7483C26.7958 11.5669 27.5033 12.4622 28.1521 13.4095C29.097 13.0527 30.2093 12.7997 31.5408 12.6492C34.6781 12.2943 37.4678 14.7795 39.8621 17.5156C39.3487 13.3679 37.5698 9.61387 34.9192 6.65332C33.4723 6.82768 31.8594 7.12309 30.2153 7.61366C29.1369 7.93577 27.4194 8.81094 25.3786 10.0936Z" fill="#D4AC66"/>
<path d="M22.7456 20.4315C23.5666 17.6506 24.5176 15.646 26.3602 14.3448C25.8072 13.5509 25.2121 12.8059 24.5675 12.1291C24.2693 11.8159 23.9677 11.5134 23.6649 11.2163C16.2725 16.2481 6.14627 25.4912 5.22548 33.4998C8.29913 36.8627 12.5056 39.169 17.241 39.8232C18.9652 36.3905 20.588 29.412 21.5526 25.2616C22.0161 23.2681 22.4161 21.5468 22.7456 20.4315Z" fill="#D4AC66"/>
<path d="M14.3634 16.0216C16.9409 13.6464 19.6629 11.5166 22.1525 9.80481C21.3226 9.07059 20.4902 8.39378 19.673 7.77307C17.6052 9.32751 14.8978 10.8585 11.9507 11.4714C11.1254 11.6432 10.2803 11.8002 9.46331 11.9519C6.31529 12.5365 3.2934 13.1026 0.752084 14.5205C0.257171 16.2626 -0.013504 18.0993 -0.013504 20C-0.013504 24.2519 1.31637 28.1915 3.57685 31.4333C5.04128 25.6352 10.0643 19.9831 14.3634 16.0216Z" fill="#D4AC66"/>
<path d="M23.8781 8.66155C26.2596 7.14331 28.3127 6.09354 29.6448 5.69592C30.841 5.33868 32.0144 5.07849 33.1256 4.88873C30.5578 2.6574 27.4191 1.06709 23.9541 0.373901C24.0309 1.77191 24.0644 3.30677 23.2234 4.4219C22.8238 4.95146 22.1478 5.67774 21.2682 6.46568C22.1297 7.13619 23.0051 7.86738 23.8781 8.66155Z" fill="#D4AC66"/>
<path d="M24.6636 20.9983C24.3511 22.057 23.9568 23.7521 23.5007 25.7146C22.154 31.5094 20.8653 36.6945 19.3603 40.0012C19.574 40.008 19.7876 40.0175 20.0029 40.0175C24.6681 40.0175 28.9567 38.4173 32.3602 35.7419C32.2258 30.0531 30.862 22.0067 27.4268 16.0336C26.0944 17.0238 25.3773 18.5816 24.6636 20.9983Z" fill="#D4AC66"/>
</svg>
