<svg width="41" height="40" viewBox="0 0 41 40" fill="none" xmlns="http://www.w3.org/2000/svg">
<path d="M40.2973 6.13467L35.0237 11.4083L32.6241 9.00875L37.8978 3.68085C38.025 3.55253 38.1983 3.48035 38.379 3.48035C38.5598 3.48035 38.733 3.55253 38.8603 3.68085L40.2973 5.17212C40.4257 5.2994 40.4978 5.47265 40.4978 5.6534C40.4978 5.83414 40.4257 6.00739 40.2973 6.13467Z" fill="#D4AC66"/>
<path d="M20.1585 0.0881348V1.44383H19.4806C18.3576 1.44383 17.4471 2.35428 17.4471 3.47738H16.0914C16.0914 2.35428 15.181 1.44383 14.0579 1.44383H13.38V0.765984C13.38 0.391618 13.6835 0.0881348 14.0579 0.0881348H20.1585Z" fill="#D4AC66"/>
<path d="M10.7442 10.5677C10.5848 10.2532 10.3941 9.95569 10.1748 9.67969L2.63708 17.2106C2.9134 17.4314 3.21084 17.6244 3.52507 17.7868L10.7442 10.5677Z" fill="#D4AC66"/>
<path d="M8.31736 8.14783L1.09827 15.3601C1.26148 15.676 1.45441 15.9756 1.67444 16.2549L9.21212 8.724C8.93348 8.50307 8.63379 8.31008 8.31736 8.14783Z" fill="#D4AC66"/>
<path d="M6.90092 7.64624C6.58001 7.57821 6.25285 7.54413 5.92481 7.54456C2.95706 7.60918 0.566635 9.9996 0.502018 12.9674C0.501587 13.2954 0.535667 13.6226 0.603696 13.9435L6.90092 7.64624Z" fill="#D4AC66"/>
<path d="M4.94135 18.2884C5.26454 18.3564 5.59395 18.3905 5.92423 18.3901C8.89198 18.3254 11.2824 15.935 11.347 12.9673C11.3444 12.6371 11.3104 12.308 11.2453 11.9844L4.94135 18.2884Z" fill="#D4AC66"/>
<path d="M26.9386 0.765984V1.44383H26.2607C25.1376 1.44383 24.2272 2.35428 24.2272 3.47738H22.8715C22.8715 2.35428 21.961 1.44383 20.8379 1.44383H20.1601V0.0881348H26.2607C26.6351 0.0881348 26.9386 0.391618 26.9386 0.765984Z" fill="#D4AC66"/>
<path d="M28.295 3.47741V8.54772L25.5836 11.2591V3.47741C25.5836 3.10304 25.8871 2.79956 26.2615 2.79956H27.6172C27.9915 2.79956 28.295 3.10304 28.295 3.47741Z" fill="#D4AC66"/>
<path d="M28.295 22.9248V38.7255C28.295 39.0998 27.9915 39.4033 27.6172 39.4033H26.2615C25.8871 39.4033 25.5836 39.0998 25.5836 38.7255V25.6362L28.295 22.9248Z" fill="#D4AC66"/>
<path d="M21.5149 3.47741V15.3059L18.8035 18.0173V3.47741C18.8035 3.10304 19.107 2.79956 19.4814 2.79956H20.8371C21.2114 2.79956 21.5149 3.10304 21.5149 3.47741Z" fill="#D4AC66"/>
<path d="M21.5149 29.7034V38.7255C21.5149 39.0999 21.2114 39.4034 20.8371 39.4034H19.4814C19.107 39.4034 18.8035 39.0999 18.8035 38.7255V32.4148L21.5149 29.7034Z" fill="#D4AC66"/>
<path d="M14.7375 3.47741V22.064L12.0261 24.7754V3.47741C12.0261 3.10304 12.3295 2.79956 12.7039 2.79956H14.0596C14.434 2.79956 14.7375 3.10304 14.7375 3.47741Z" fill="#D4AC66"/>
<path d="M14.7358 36.4819V38.7256C14.7358 39.1 14.4323 39.4035 14.0579 39.4035H12.7022C12.4704 39.4016 12.2557 39.2814 12.1328 39.0849L14.7358 36.4819Z" fill="#D4AC66"/>
<path d="M34.6791 14.628L10.107 39.2001C9.97976 39.3284 9.80651 39.4006 9.62577 39.4006C9.44503 39.4006 9.27177 39.3284 9.1445 39.2001L4.77914 34.8754C4.51633 34.611 4.51633 34.184 4.77914 33.9196L29.4054 9.35438C29.612 9.14567 29.9294 9.09368 30.1917 9.22559L31.683 9.97122L34.0758 12.364L34.8214 13.8417C34.9499 14.1069 34.8924 14.4247 34.6791 14.628Z" fill="#D4AC66"/>
<path d="M34.6791 14.628L10.107 39.2001C9.97976 39.3284 9.80651 39.4006 9.62577 39.4006C9.44503 39.4006 9.27177 39.3284 9.1445 39.2001L4.77914 34.8754C4.51633 34.611 4.51633 34.184 4.77914 33.9196L29.4054 9.35438C29.612 9.14567 29.9294 9.09368 30.1917 9.22559L31.683 9.97122L34.0758 12.364L34.8214 13.8417C34.9499 14.1069 34.8924 14.4247 34.6791 14.628Z" fill="#D4AC66"/>
</svg>
