<svg width="41" height="40" viewBox="0 0 41 40" fill="none" xmlns="http://www.w3.org/2000/svg">
<path d="M22.0075 34.9627C23.5869 34.9627 25.0827 35.7474 26.0072 37.0594C27.0903 38.5937 28.3241 39.4732 29.3918 39.4732C30.968 39.4732 31.4264 37.2993 31.5755 35.732C31.7692 33.709 31.4929 31.2267 30.8744 29.5251C29.6053 26.0416 27.4602 24.2189 25.9974 24.2189C25.6251 24.2189 25.2664 24.332 24.9584 24.5535C23.6915 25.4648 22.6624 25.8709 21.62 25.8709H19.0929C18.0506 25.8709 17.0215 25.4648 15.7568 24.5545C15.4673 24.3456 15.1098 24.2199 14.72 24.2199C13.2539 24.2199 11.1065 26.0426 9.83858 29.5251C9.22004 31.2267 8.94375 33.709 9.13746 35.7319C9.28578 37.2921 9.74473 39.4731 11.319 39.4731C12.3877 39.4731 13.6226 38.5937 14.7057 37.0593C15.6314 35.7464 17.126 34.9627 18.7055 34.9627H22.0075ZM23.7377 29.2522H25.9919V31.5063H23.7377V29.2522ZM16.9753 31.5063H14.7211V29.2522H16.9753V31.5063Z" fill="#D4AC66"/>
<path d="M24.6439 8.62497C23.5322 5.26808 21.8955 3.25415 20.3565 3.25415C18.821 3.25415 17.1879 5.25862 16.0764 8.60182C17.4188 8.77066 18.829 8.88953 20.3565 8.88953C21.8311 8.88953 23.2719 8.79636 24.6439 8.62497Z" fill="#D4AC66"/>
<path d="M37.2053 16.8542C36.988 13.5832 35.8418 10.4946 34.0208 7.99182C32.3336 9.05961 30.0752 9.89169 27.4786 10.4332C27.8989 12.3523 28.1565 14.5633 28.2209 16.8542H37.2053Z" fill="#D4AC66"/>
<path d="M25.2483 10.8159C23.6887 11.0262 22.0482 11.1437 20.3556 11.1437C18.6499 11.1437 17.0102 11.0282 15.4622 10.8189C15.0672 12.5749 14.8115 14.6589 14.7444 16.8543H25.9669C25.8996 14.6576 25.6437 12.5727 25.2483 10.8159Z" fill="#D4AC66"/>
<path d="M3.50812 16.8543H12.4926C12.557 14.5639 12.8145 12.3533 13.2346 10.4347C10.6205 9.8862 8.38122 9.04015 6.7042 7.97656C4.87661 10.4823 3.72572 13.5766 3.50812 16.8543Z" fill="#D4AC66"/>
<path d="M32.5633 6.23955C29.4833 3.01844 25.1559 1 20.3576 1C23.1523 1 25.5188 3.80942 26.9111 8.2474C29.1618 7.78943 31.1145 7.10259 32.5633 6.23955Z" fill="#D4AC66"/>
<path d="M33.0913 29.0957C35.5438 26.3011 36.9705 22.833 37.2129 19.1083H28.2058C28.1725 20.2385 28.0909 21.3472 27.9591 22.431C30.4338 23.5786 32.2063 26.4202 33.0913 29.0957Z" fill="#D4AC66"/>
<path d="M17.0769 22.7272C18.1721 23.5153 18.7301 23.6166 19.0933 23.6166H21.6204C21.9836 23.6166 22.5417 23.5153 23.6423 22.7228C24.2623 22.2783 24.9859 22.0535 25.7393 22.0048C25.8503 21.0589 25.921 20.0936 25.9518 19.1083H14.7619C14.7927 20.0938 14.8634 21.0595 14.9743 22.0054C15.7314 22.0535 16.4585 22.2797 17.0769 22.7272Z" fill="#D4AC66"/>
<path d="M13.8074 8.23297C15.2003 3.80364 17.5644 1 20.3561 1C15.5652 1 11.2434 3.0119 8.16434 6.22415C9.54606 7.04458 11.4673 7.75036 13.8074 8.23297Z" fill="#D4AC66"/>
<path d="M7.62134 29.0951C8.4958 26.4448 10.2748 23.5816 12.7543 22.4325C12.6225 21.3484 12.5407 20.239 12.5074 19.1083H3.50031C3.7427 22.8327 5.1692 26.3007 7.62134 29.0951Z" fill="#D4AC66"/>
</svg>
