<svg width="41" height="40" viewBox="0 0 41 40" fill="none" xmlns="http://www.w3.org/2000/svg">
<path d="M6.39421 16.1682L0.537384 21.3508C0.757045 24.6468 1.79599 27.836 3.56015 30.6296L11.3419 31.3838L14.5304 26.9983L12.0902 18.0153L6.39421 16.1682Z" fill="#D4AC66"/>
<path d="M36.3672 32.1689L29.8085 32.8046L27.1739 38.8507C30.8181 37.5541 34.0103 35.234 36.3672 32.1689Z" fill="#D4AC66"/>
<path d="M25.1483 26.425L27.5013 17.764L20.5037 13.005L13.5061 17.764L15.8584 26.425H25.1483Z" fill="#D4AC66"/>
<path d="M28.5033 32.2233L25.3219 27.8557H15.6725L12.4946 32.2255L15.6203 39.3972C18.8208 40.201 22.1706 40.201 25.3712 39.3972L28.5033 32.2233Z" fill="#D4AC66"/>
<path d="M13.8283 38.8507L11.1929 32.8046L4.63275 32.1689C6.99029 35.2344 10.1833 37.5545 13.8283 38.8507Z" fill="#D4AC66"/>
<path d="M4.01632 8.67517C1.8178 11.857 0.595906 15.6106 0.500366 19.476L5.43728 15.107L4.01632 8.67517Z" fill="#D4AC66"/>
<path d="M12.5757 16.6697L19.7899 11.7636V5.40675L13.0489 1.44482C9.98579 2.68052 7.27457 4.65136 5.15497 7.18309L6.8404 14.8098L12.5757 16.6697Z" fill="#D4AC66"/>
<path d="M40.4996 19.476C40.404 15.6104 39.1821 11.8566 36.9837 8.67444L35.562 15.1069L40.4996 19.476Z" fill="#D4AC66"/>
<path d="M26.1871 0.827089C22.4763 -0.275696 18.5245 -0.275696 14.8137 0.827089L20.5004 4.1712L26.1871 0.827089Z" fill="#D4AC66"/>
<path d="M21.2158 11.7636L28.4307 16.6697L34.1653 14.8127L35.85 7.18523C33.7308 4.65257 31.0195 2.68094 27.9561 1.44482L21.2158 5.40818V11.7636Z" fill="#D4AC66"/>
<path d="M40.4638 21.3508L34.607 16.1682L28.911 18.0153L26.4707 26.9983L29.6586 31.3824L37.441 30.6296C39.2051 27.8359 40.244 24.6468 40.4638 21.3508Z" fill="#D4AC66"/>
</svg>
