<svg width="41" height="27" viewBox="0 0 41 27" fill="none" xmlns="http://www.w3.org/2000/svg">
<path d="M28.1546 15.1427C28.3593 15.0957 28.5743 15.1439 28.7395 15.2738C28.9046 15.4036 29.0021 15.6012 29.0047 15.8112V24.1722C28.9913 25.3001 28.3027 26.3099 27.2575 26.7342C26.6001 27.0222 27.7292 26.9345 2.76246 26.9345C1.24094 26.9247 0.00991678 25.6937 0.00012207 24.1722V13.8134C0.00012207 12.2878 1.23686 11.051 2.76246 11.051H24.2445C24.4546 11.0536 24.6521 11.1511 24.782 11.3163C24.9118 11.4814 24.96 11.6964 24.913 11.9011C24.7316 12.8045 25.014 13.7387 25.6655 14.3902C26.317 15.0417 27.2513 15.3242 28.1546 15.1427Z" fill="#D4AC66"/>
<path d="M9.66434 24.172C9.28294 24.172 8.97375 23.8628 8.97375 23.4814V14.5038C8.97375 14.1224 9.28294 13.8132 9.66434 13.8132C10.0457 13.8132 10.3549 14.1224 10.3549 14.5038V23.4814C10.3549 23.8628 10.0457 24.172 9.66434 24.172Z" fill="#1C3934"/>
<path d="M15.1883 24.172H14.4977C14.176 24.1722 13.8968 23.9502 13.8244 23.6368L11.7527 14.6592C11.6668 14.2873 11.8987 13.9163 12.2706 13.8305C12.6425 13.7447 13.0135 13.9765 13.0993 14.3484L14.843 21.9062L16.5868 14.3484C16.6423 14.1079 16.8219 13.9152 17.058 13.843C17.2941 13.7708 17.5507 13.83 17.7313 13.9984C17.9119 14.1667 17.9889 14.4186 17.9334 14.6592L15.8616 23.6368C15.7893 23.9502 15.51 24.1722 15.1883 24.172Z" fill="#1C3934"/>
<path d="M23.4763 24.172H20.0233C19.6419 24.172 19.3328 23.8628 19.3328 23.4814V14.5038C19.3328 14.1224 19.6419 13.8132 20.0233 13.8132C20.4047 13.8132 20.7139 14.1224 20.7139 14.5038V22.7908H23.4763C23.8577 22.7908 24.1669 23.1 24.1669 23.4814C24.1669 23.8628 23.8577 24.172 23.4763 24.172Z" fill="#1C3934"/>
<path d="M6.90255 24.172H3.44962C3.06822 24.172 2.75903 23.8628 2.75903 23.4814V14.5038C2.75903 14.1224 3.06822 13.8132 3.44962 13.8132C3.83102 13.8132 4.1402 14.1224 4.1402 14.5038V22.7908H6.90255C7.28395 22.7908 7.59313 23.1 7.59313 23.4814C7.59313 23.8628 7.28395 24.172 6.90255 24.172Z" fill="#1C3934"/>
<path d="M23.4763 20.0284H20.0233C19.6419 20.0284 19.3328 19.7192 19.3328 19.3378C19.3328 18.9564 19.6419 18.6472 20.0233 18.6472H23.4763C23.8577 18.6472 24.1669 18.9564 24.1669 19.3378C24.1669 19.7192 23.8577 20.0284 23.4763 20.0284Z" fill="#1C3934"/>
<path d="M23.4763 15.1944H20.0233C19.6419 15.1944 19.3328 14.8852 19.3328 14.5038C19.3328 14.1224 19.6419 13.8132 20.0233 13.8132H23.4763C23.8577 13.8132 24.1669 14.1224 24.1669 14.5038C24.1669 14.8852 23.8577 15.1944 23.4763 15.1944Z" fill="#1C3934"/>
<path d="M20.2613 6.17541C22.5942 3.42065 26.268 2.19584 29.7872 2.99956C33.3064 3.80328 36.0843 6.50151 36.99 9.99588C37.8957 13.4903 36.7782 17.1981 34.0924 19.6101C33.6924 19.9289 33.5014 20.4427 33.596 20.9454C33.6905 21.4481 34.0552 21.8574 34.5437 22.0091C35.0322 22.1608 35.5646 22.0301 35.9273 21.6694C39.3823 18.5699 40.8211 13.8029 39.6579 9.30949C38.4947 4.8161 34.9235 1.34602 30.3986 0.312347C25.8736 -0.721325 21.1498 0.853865 18.1509 4.39646C17.8094 4.7705 17.7 5.30146 17.8659 5.78004C18.0317 6.25861 18.4462 6.608 18.946 6.69049C19.4457 6.77297 19.9505 6.5753 20.2613 6.17541Z" fill="#D4AC66"/>
<path d="M25.2017 9.06838C26.857 7.88164 29.1293 8.07392 30.5617 9.52193C31.9941 10.9699 32.1617 13.2442 30.957 14.8866C30.6428 15.3238 30.6184 15.9059 30.8949 16.3679C31.126 16.7678 31.5418 17.0257 32.0027 17.0551C32.4637 17.0846 32.9089 16.8816 33.189 16.5143C35.1997 13.7782 34.9219 9.98614 32.5339 7.57234C30.1459 5.15855 26.357 4.84001 23.5995 6.82121C23.2188 7.10876 23.0146 7.57328 23.06 8.04823C23.1055 8.52317 23.3942 8.94049 23.8226 9.15056C24.262 9.38073 24.7927 9.34911 25.2017 9.06838Z" fill="#D4AC66"/>
<path d="M27.6233 13.8134C28.3861 13.8134 29.0045 13.195 29.0045 12.4322C29.0045 11.6694 28.3861 11.051 27.6233 11.051C26.8605 11.051 26.2421 11.6694 26.2421 12.4322C26.2421 13.195 26.8605 13.8134 27.6233 13.8134Z" fill="#D4AC66"/>
</svg>
