<svg width="40" height="32" viewBox="0 0 40 32" fill="none" xmlns="http://www.w3.org/2000/svg">
<path d="M5.33754 1.14534C2.96426 2.18945 1.1843 4.35226 0.675738 6.80274C0.469893 7.80424 0.433567 24.02 0.627304 25.1067C1.11165 27.717 3.04902 29.9863 5.77345 31.1477C7.51708 31.8935 8.1104 32 10.5563 32C13.0023 32 13.5956 31.8935 15.3392 31.1477C17.7851 30.1035 19.553 28.2177 20.2674 25.9058C20.4854 25.1813 20.5096 24.7977 20.4975 22.9013C20.4732 20.3869 20.5338 20.5787 19.1655 18.7355C18.657 18.0536 18.1847 17.4037 18.1 17.2972C17.2645 16.1145 16.6469 15.3155 16.5259 15.2729C16.4048 15.2409 16.3684 16.1572 16.3684 19.6731C16.3684 22.4325 16.32 24.3716 16.2352 24.7551C15.872 26.5131 14.2252 28.026 12.2394 28.4202C11.3313 28.612 9.45445 28.5587 8.63107 28.3349C6.63315 27.7916 5.15591 26.268 4.8653 24.4675C4.69578 23.4553 4.70789 7.90012 4.87741 7.2076C5.16802 6.00367 5.90664 5.0661 7.17804 4.24572C7.72293 3.89413 7.98931 3.65974 7.92877 3.5745C7.55341 3.04179 6.18514 1.18796 6.07616 1.07076C5.90664 0.910946 5.87031 0.910946 5.33754 1.14534Z" fill="#D4AC66"/>
<path d="M15.6625 30.8547C18.0357 29.8105 19.8157 27.6477 20.3243 25.1973C20.5301 24.1958 20.5664 7.98002 20.3727 6.89329C19.8884 4.283 17.951 2.01365 15.2266 0.852339C13.4829 0.106543 12.8896 1.88148e-07 10.4437 0C7.99774 -1.88147e-07 7.40442 0.106542 5.66079 0.852338C3.21485 1.89645 1.447 3.78225 0.732598 6.09422C0.514644 6.81871 0.490426 7.20236 0.502535 9.09871C0.526752 11.6131 0.466209 11.4213 1.83448 13.2645C2.34304 13.9464 2.81527 14.5963 2.90003 14.7028C3.73552 15.8855 4.35306 16.6845 4.47414 16.7271C4.59523 16.7591 4.63156 15.8428 4.63156 12.3269C4.63156 9.5675 4.67999 7.62843 4.76475 7.24488C5.12801 5.48693 6.77477 3.97403 8.76058 3.57982C9.66872 3.38805 11.5455 3.44132 12.3689 3.66506C14.3668 4.20842 15.8441 5.73198 16.1347 7.53254C16.3042 8.5447 16.2921 24.0999 16.1226 24.7924C15.832 25.9963 15.0934 26.9339 13.822 27.7543C13.2771 28.1059 13.0107 28.3403 13.0712 28.4255C13.4466 28.9582 14.8149 30.812 14.9238 30.9292C15.0934 31.0891 15.1297 31.0891 15.6625 30.8547Z" fill="#D4AC66"/>
<path d="M32.559 22.8257V22.0145C32.559 21.4186 32.6842 20.8703 32.9345 20.3696C33.1899 19.8689 33.5604 19.4658 34.0461 19.1604C34.5318 18.8549 35.1202 18.7022 35.8112 18.7022C36.5222 18.7022 37.1181 18.8549 37.5988 19.1604C38.0795 19.4608 38.4425 19.8614 38.6878 20.3621C38.9382 20.8628 39.0634 21.4136 39.0634 22.0145V22.8257C39.0634 23.4215 38.9382 23.9698 38.6878 24.4705C38.4375 24.9713 38.0694 25.3743 37.5837 25.6798C37.103 25.9852 36.5122 26.1379 35.8112 26.1379C35.1102 26.1379 34.5168 25.9852 34.0311 25.6798C33.5454 25.3743 33.1774 24.9713 32.927 24.4705C32.6817 23.9698 32.559 23.4215 32.559 22.8257ZM34.5193 22.0145V22.8257C34.5193 23.2212 34.6145 23.5843 34.8047 23.9147C34.995 24.2452 35.3305 24.4104 35.8112 24.4104C36.2969 24.4104 36.6299 24.2477 36.8101 23.9222C36.9954 23.5918 37.088 23.2262 37.088 22.8257V22.0145C37.088 21.6139 37.0004 21.2484 36.8251 20.9179C36.6499 20.5824 36.3119 20.4147 35.8112 20.4147C35.3405 20.4147 35.0075 20.5824 34.8122 20.9179C34.617 21.2484 34.5193 21.6139 34.5193 22.0145ZM24.7402 14.023V13.2118C24.7402 12.6109 24.8679 12.0601 25.1233 11.5594C25.3787 11.0587 25.7492 10.6581 26.2349 10.3577C26.7206 10.0523 27.3089 9.89954 27.9999 9.89954C28.7059 9.89954 29.2993 10.0523 29.78 10.3577C30.2657 10.6581 30.6312 11.0587 30.8766 11.5594C31.1219 12.0601 31.2446 12.6109 31.2446 13.2118V14.023C31.2446 14.6238 31.1194 15.1746 30.8691 15.6754C30.6237 16.1711 30.2582 16.5691 29.7725 16.8696C29.2868 17.17 28.6959 17.3202 27.9999 17.3202C27.2939 17.3202 26.6981 17.17 26.2124 16.8696C25.7317 16.5691 25.3661 16.1686 25.1158 15.6678C24.8654 15.1671 24.7402 14.6188 24.7402 14.023ZM26.7156 13.2118V14.023C26.7156 14.4236 26.8082 14.7891 26.9935 15.1196C27.1838 15.445 27.5192 15.6078 27.9999 15.6078C28.4806 15.6078 28.8111 15.445 28.9914 15.1196C29.1766 14.7891 29.2693 14.4236 29.2693 14.023V13.2118C29.2693 12.8112 29.1816 12.4457 29.0064 12.1152C28.8311 11.7797 28.4956 11.612 27.9999 11.612C27.5242 11.612 27.1913 11.7797 27.001 12.1152C26.8107 12.4507 26.7156 12.8162 26.7156 13.2118ZM25.5965 25.7098L36.1717 10.3277H38.0494L27.4742 25.7098H25.5965Z" fill="white"/>
</svg>
