<svg width="40" height="32" viewBox="0 0 40 32" fill="none" xmlns="http://www.w3.org/2000/svg">
<path d="M12.3864 9.18726H2.26136C1.529 9.18726 0.826641 9.45135 0.308785 9.92144C-0.209071 10.3915 -0.5 11.0291 -0.5 11.6939V17.5428C-0.5 18.2076 -0.209071 18.8452 0.308785 19.3152C0.826641 19.7853 1.529 20.0494 2.26136 20.0494H12.3864V9.18726Z" fill="#D4AC66"/>
<path d="M35.1124 0.430721C34.7283 0.194787 34.285 0.0504478 33.8233 0.0110201C33.3616 -0.0284076 32.8965 0.0383458 32.4707 0.205122L14.2273 8.6609V20.5842L32.4615 29.0901C33.3432 29.336 34.2963 29.2549 35.1124 28.8645C35.4841 28.6344 35.7883 28.3254 35.9985 27.9642C36.2086 27.6031 36.3184 27.2008 36.3182 26.7924V2.50289C36.3184 2.09445 36.2086 1.69216 35.9985 1.33101C35.7883 0.969867 35.4841 0.660806 35.1124 0.430721Z" fill="#D4AC66"/>
<path d="M12.8915 21.7206H5.45419L8.03147 29.9257C8.19585 30.4509 8.54462 30.9129 9.02476 31.2417C9.5049 31.5705 10.0902 31.748 10.6916 31.7472H12.3852C12.8057 31.7306 13.2169 31.6298 13.5894 31.452C13.9619 31.2742 14.2865 31.0238 14.5398 30.7187C14.7932 30.4137 14.9691 30.0615 15.0549 29.6875C15.1407 29.3135 15.1343 28.9269 15.0361 28.5554L12.8915 21.7206Z" fill="#D4AC66"/>
<path d="M38.1591 11.8445V17.3925C38.6962 17.2202 39.1615 16.9012 39.491 16.4793C39.8206 16.0575 39.9984 15.5534 40 15.0363V14.2007C39.9984 13.6836 39.8206 13.1795 39.491 12.7577C39.1615 12.3358 38.6962 12.0169 38.1591 11.8445Z" fill="#D4AC66"/>
</svg>
