<svg width="40" height="40" viewBox="0 0 40 40" fill="none" xmlns="http://www.w3.org/2000/svg">
<path d="M28.2073 28.1274C25.6213 28.1274 23.5184 30.2303 23.5184 32.8163C23.5184 35.4022 25.6213 37.5833 28.2073 37.5833C30.7932 37.5833 32.8961 35.4022 32.8961 32.8163C32.8961 30.2303 30.7932 28.1274 28.2073 28.1274Z" fill="#D4AC66"/>
<path d="M39.0854 16.2997C41.615 10.3404 38.7102 3.45879 32.751 0.92924C26.7918 -1.60031 19.9101 1.18009 17.3806 7.13929C16.7262 8.68098 16.4667 10.2799 16.4862 11.8534L36.1912 20.2177C37.3367 19.1386 38.431 17.8412 39.0854 16.2997Z" fill="#D4AC66"/>
<path d="M16.8264 14.5453C17.5074 17.2676 19.1247 19.7288 21.5237 21.3762L17.7672 30.2259C17.2614 31.4177 17.8173 32.7941 19.0093 33.2999C20.2013 33.8059 21.5775 33.2497 22.0834 32.058L25.8398 23.2084C28.6913 23.7896 31.5853 23.2435 34.0167 21.842L16.8264 14.5453Z" fill="#D4AC66"/>
<path d="M11.7951 40.0058C13.0899 40.0058 14.1395 38.9561 14.1395 37.6614V27.8912C15.0052 27.7154 15.8172 27.4141 16.5989 27.0565L18.1348 23.4386H2.37958C4.07006 25.6785 6.59867 27.3121 9.45066 27.8912V37.6614C9.45066 38.9561 10.5002 40.0058 11.7951 40.0058Z" fill="#D4AC66"/>
<path d="M15.6827 5.39437C14.4608 4.96268 13.1659 4.68323 11.7963 4.68323C5.32245 4.68323 -0.00391388 9.93144 -0.00391388 16.4053C-0.00391388 18.0801 0.381977 19.6534 1.01474 21.0942H17.7708C14.2026 17.1109 13.0944 11.3175 15.2557 6.22406C15.3788 5.93429 15.5423 5.67257 15.6827 5.39437Z" fill="#D4AC66"/>
</svg>
