<svg width="41" height="40" viewBox="0 0 41 40" fill="none" xmlns="http://www.w3.org/2000/svg">
<path d="M18.6221 0.0771484C14.1474 0.494416 9.77931 2.42049 6.34638 5.85146C2.91345 9.28146 0.989334 13.6496 0.573044 18.1301C5.48644 18.6998 10.7106 21.2112 14.9995 25.5002C19.2905 29.7901 21.8048 35.0182 22.3696 39.9276C26.857 39.5113 31.2143 37.5863 34.6502 34.1572C38.0821 30.7282 40.0043 26.3581 40.4186 21.8786C35.517 21.3099 30.284 18.7985 25.9951 14.5085C21.709 10.2196 19.1947 4.99054 18.6221 0.0771484Z" fill="#D4AC66"/>
<path d="M40.4999 19.3976C40.3543 14.4773 38.4077 9.60301 34.6572 5.84761C30.9047 2.0922 26.0245 0.152444 21.1043 0C21.6574 4.29678 23.9392 8.91408 27.764 12.7398C31.5887 16.5656 36.2002 18.8435 40.4999 19.3976Z" fill="#D4AC66"/>
<path d="M0.500122 20.6093C0.644749 25.5275 2.59232 30.4028 6.34675 34.1563C10.0982 37.9078 14.9726 39.8573 19.8918 40C19.3387 35.7091 17.0599 31.0947 13.2331 27.2689C9.41029 23.4451 4.79397 21.1663 0.500122 20.6093Z" fill="#D4AC66"/>
</svg>
